<mxfile host="app.diagrams.net" agent="Mozilla/5.0 (Windows NT 10.0; Win64; x64) AppleWebKit/537.36 (KHTML, like Gecko) Chrome/129.0.0.0 Safari/537.36" version="24.7.16">
  <diagram name="Page-1" id="5EG-3B-zGRtOQ-nKXXNU">
    <mxGraphModel dx="1050" dy="530" grid="1" gridSize="10" guides="1" tooltips="1" connect="1" arrows="1" fold="1" page="1" pageScale="1" pageWidth="827" pageHeight="1169" math="0" shadow="0">
      <root>
        <mxCell id="0" />
        <mxCell id="1" parent="0" />
        <mxCell id="aWVlBLdshiJsLIwugZeu-1" value="" style="shape=image;verticalLabelPosition=bottom;labelBackgroundColor=default;verticalAlign=top;aspect=fixed;imageAspect=0;image=data:image/png,iVBORw0KGgoAAAANSUhEUgAAAtAAAAGzCAYAAAAG3yD1AAAAAXNSR0IArs4c6QAAIABJREFUeF7snQeYVNX5/99d6oKwNOmdqMAPKRINiDUUCxaMLTYQjSYmVjAiwRILKvytsaOCYo9YI5EaFKQEQVCqKB0WpAkSWNou/+d71nc4e7kzc+/slDsz3/s8PMzOnHvOe77nzp3PvPOe981p0KTpQeFBBTwo0KhJU/lq+jQPLdmEClABKkAFqAAVoAKZq0DOUb/udrDX/S9n7gw5s7go8PPGdbLk5fsI0HFRk51QASpABahAEBU4eJA+xSCuS1lsysnJKcvpYc81AH3xSxMS0jk7zRwF1s6bQYDOnOXkTKgAFaACVOAXBcJBM2E6fS+RcNAcT5jOSIDeuup7+XDQVWblLxj2utRufpTrVXBgb6FMfHSQea3n7cOkfKU8z1fLly89Iuvmz5TzHxolefm1PJ+Xrg0J0Om6crSbClABKkAF3BRwAnK0v7UPgnVwrievoOxsFw+QzkiAXvjvd+WTIdeYFT5v6Ehpd/alcQfo4Fw+ybGEAJ0cnTkKFaACVIAKJE4BN/jV5+zX3J5LnFXsOV4K2GDs9jieIJ1xAK1e5b07fzbrUala9VLe5cId2+Tjv/WXFTMmSdszLi7VZunkT2TWa09I50uul88evMm8dtZdT8vGpfNl3phXpOWJPUIeZ9sDvXXldzK6fw/Tdu4/R8imZQsignu8LpRk9kOATqbaHIsKUAEqQAXirUA4DzOed8JzyXMhn3PIFHqf470qZe+vNBSXxDsj7BnPOyFa/44HSGccQGv4Rpd+txkRAcR2GAfAd+mkj8xzOBDq0aj9CQayAdDwXMNr3br7eSa8A+Dcd9QkyatRx7Rt3aOPnHTdneIG0Kf8+e7DXsuU8A4CdNnf5OyBClABKkAFUqNAOO+ygnLJ6weluLjkf6cHugSmucEwNavnZVTAckm70pCcI7m5CtIlbWywDuex9jRipm0iRPiGQrMCMmAaYRzqfW7csasBXWcMtHqgFbhtSEZf8FzruW4AreEitg3h4q+9LE6Q2hCgg7QatIUKUAEqQAW8KBAZnEtAOdw/g8y/uKHpefaidmrbOL3LCspu/+fm5rrAdmkAjzabjPJAO4EYk7c3Ce7fU1gKguMN0PBUA7AJ0NEuO75OBagAFaACVCCxChzuRS7xIOP54uLiEDjrY9v7DMACeOn/8dh0ltjZsnf9InRoPYtD3maF6EPrmWt5pt3DPaIpmlEAjawYiEV2OwC3tVscYwA6v2EzE7LhBOyyeqAJ0NEuN75OBagAFaACVCCxCkTzOtuAZcM04Kp8+fJSrly5w8CZAJ3YNYtH7/YXJl3XoqIiOXDggPnClJNzCJqx1vaXo1jCOjIKoO34Zg2d0JhoO3Y5Ugy0HTPtN4SDAB2PtwD7oAJUgApQASoQuwJunucSoCrxPBcXF/3ihUb4RrEBqUqVKhl4xkFYjl37oJ2pXmlA9N69+8x6K0iXAHQJSGuctFsYSLg5ZQxAa3yzepc1p7OGaewoWG0yaFSonBfaHBguC0esMdAE6KC9dWgPFaACVIAKZJMC4eEZ4Fz6H3SpXLmyVKhQgdCcBRcJro19+/bJ3r17zWzxS0NJmA5+cTg8XCdcxg6VKmMAOgvWPqVT5CbClMrPwakAFaACVCCKAm7w7IRmjXMGNOXlVTbeRx7ZpQDCOvbs2WO+UInkSLly6oUuHdZh/xrh9qsEATq7rpuYZ0uAjlk6nkgFqAAVoAJJUMDO56yPAUs2RAOE4HGuWLEivc5JWJOgDqHeaHikAdHwQGvsuzM22gZpez4E6KCubsDsIkAHbEFoDhWgAlSACoQUcG4gszeRKUADnhHrDIDmQQWQoXD//n0mrAPXC8C5BKJLQjrs9HduEE2A5jXkSQECtCeZ2IgKUAEqQAWSrIA7PGPDYJGoBxowhHhn3SgYyUT0t2bzNvm+4EdZu+Un+WnnLtmz/4CBrLxKFaROtSOkcZ1acnSjelK/Zr6UL8cwkCQvedyGw5ru37//F4hGXDTCOEqysGhctA3PpQqvZFohlbipyo5KKUCA5gVBBagAFaACQVPAmbJOPc/wOgOei4oQ53owtFkwkv0Hiopl9rIVMv7rRbJy4xYDUA1q5kvt6kdIlUoVpfjgQdm774Bs3rFTftz+s/n7mEb15MxfHyudWjYNVcILmka0J7ICCtHYXKi5v93COZxe6Jwq1fMPVqiaT32pQEQFDuzbK43qHynfLVxApagAFaACVIAKBEIBN+9zCTiXxD7jdcQ7I3Qj0vH9+h/lpfHT5NtVa6Vji6bS+4T20q5Zo5K80MgP/YuTGT/7FxUXy+69++Tbletk7FffynfrNkqHlk3k5nN/K/VqRuap7du3y8aNG6VJkyZStWpVY9+mTZtk27Ztcswxx4Td1PjTTz+Zds2bN486F3ueO3bsMOO1atUq5H0vKCiQXbt2yVFHHRWINQyKEdhYiHAOhWdnPvDDUty1aP/rg2c/8npQ7KcdAVVgw6K58sM7T8k3c2YH1EKaRQWoABWgAtmmgA3Q9mZBhehy5cpL1apVwsqyZ99+mfLtUnl9yiypU/0IubbXKfKrJg1l8Y5imbetyHiVezYoL7v2H5TW+eXkh53FUjFXZPbWIjm6Wq60rJYrS1askufGTpHde/bKX845XU76v6OkQrlyrmN+99138uWXX8opp5wiv/rVrwzojx071sB+jx49DBzjMcAd/7QQyI8//ijr16+XDh06mOc1ZlfjudFOvaeAQDyPfhCeADAErM+ePVuOP/54WbVqlQH2Tp06GWBnTHjJUkFTfLGw46EjFdVhDHS23W1inC9DOGIUjqdRASpABahAQhRwqzxnh26gaMYRRxwR1qu7s3CPfDr7Gxk3d5Gceuwx8tvjO8nqvRXlix8PyOa9B+XISjnSu1EF+d+Bgwacr2pZUR5csEeuaFFR1u4ulgkF+6V2pVw5tV55aZFXJGOmfClffb9KzuzcTs45voMckXe41xsADYAFKJ944omye/du+fe//y2NGjWSli1byooVKwzc1qxZU0466ST59ttvZd26dQakq1WrJh07dpSvvvrKQB7mdtxxx5n/lyxZYjzt8Gx/+umncvrpp8uGDRsMPOMAJE+ePNkANGD6+++/N+fZ4J6QRUqzTqEzIForFbptKsSUzAZDxkCn2eqmyFwCdIqE57BUgApQASrgqkA07zM2DQIq3Y4DRUUy5su5MnH+Yjm3Sydp9atjZNa2XFm0o0iKDopULicGjJtWyZVP1++XI8rnyJ+OriR//bpQjqleTnrULy8zNh+Q+T8Vme471SonXWqJLFy8UCbNWyy/7dBaeh/f3sRO2wcAGoAGuO3atWsIfAHSbdq0kcLCQhNGMHHiRLnqqqsM9J5xxhkmDAMgjTkhBANt8X/jxo2NJxvhHd98842B8Dlz5kjTpk3N3PEPYSO/+c1v5J133pG+ffsKbNDxJ02aJCeccIIceeSRvMp+UcAO5bABWtPbEaB5qfhSgADtSy42pgJUgApQgQQqECn2WcMZ4GkNV5YbkPvq5Bly4UnHS7NftZYpm0XW7CqW4oPICiwmNKN3o/Ly5aYiA8mtjsg1AD1wbmEIrhvl5cqUHw+Y8wDdLY7IlVNrF8uKZYvkiwXfySWnHC8ntv5VqSwdgFcAGsBM46FPPvlkWbp0qfEw4zVA8vTp0+XKK6+UL774wgA0QjgA0PAkL1++XI499lijbv369Q38wpMMzzMOxFIrTNerV894vAHQb7/9tvTr1894nzE2vNEAdMB4w4YNE7ha6dU1tMSXHFwJ5cuXC8VE22nt6IFOrzVNqbUE6JTKz8GpABWgAlTAUsDpfcbfGveM//Py8sLG9q76cYsMGvW+9OjURnqf+BuZsyNXVu/ChsOSAXJzRLrUKS/5FUU+//GAFB4QaVQlV85vXEGeW1ZSBrpBXq50qVNO4H+evaVINhYWm/OaHZErHarul4+nzTSZPO68+GypW6NayPKVK1eauGSEbMD726xZM+M1XrZsmbEZnmEA9Jo1a+SCCy6QhQsXGtjFgZALbAb8+uuvzdzwd+vWrSU/v2Tj4oIFCwT9//a3vzVhHoDiOnXqGIBu3769jBs3TurWrWtAHZDYrl07mTlzptlMiHY8DimAjBz4ZzaRmtzQLlUKGcLBS8aLAgRoLyqxDRWgAlSACiRDAa00qP8fin0uCamoUqWKa+wz2j/wzqey+set8sT1v5cqeZVl14GDxvNsH1XL55g4490l3Un5HJEjKuTI9n0lDQHLlQ/slaJVq6SocVM5UCnPPF8uR6RKuRxZv2WrDBvzmZxwdAu5uke3UNclle9KYpJ37twZyk0NWAOoIYQD48LDWb16dRPOoTG5CMcAXONvPA+4g5ddc1vjOfQDsFYvN/rE8zjvf//7nwFnxF9rURmEjuBvtONxSAF8CYM2pWOhSyAah28P9Lr5M2XB2Lel5+3DZNbop6RGoxbS7uxLXTUv3LFNxj88QE7+0xCp3Tx8qhS0+/hv/eWk6+6Uxh27hvpa+O93Zfv6leb5rau+l2kvDJUzBj8uu3/aGnq8deV3nu2JdGHY/efl1+I15KIAAZqXBRWgAlSACgRFASdA295nACWA0S1845uVa+WeNz6W+6/sI/uqNZB3VpcArX1c1KyCiXl+dfmh11odUU6uO6qi3DmvUBrm5crvGx6U8h+/KxvffFPq9+sn+ZdeLs8t2yfrC4ulUrkcOa9xeVm37Bt55/PZMnrANVKlcuQ0ekHRlXaUKIDrC19mcF3hy4X+KxXG4ccDbQN0+V++bYUTO1EAbQOuH3sI0GV7WxCgy6Yfz6YCVIAKUIH4KOCWfeMQQBdLXl5l1/ANFD556uPJshbe4WsuleGL9sjGPaVdzxVyRe5rX1neX7Nf5m77xf0sIkdVK4mBfmTRHrmqQZFUnfQv2TBihBz4+We4I6XJgAGSc87v5PW1Iqt3F0vb/HLSo84BufvlN+Xc33SQy045wXh/4QWGlxjeZc1NjefhjUZoB8IrKhw8KAcPHJByRxwRH8HC9IIx4alGCAi829AQ9qmXXE+Dtxye7mSku4MNyHkNe+BJz0FO78JCKV+tmtE5mYcdxnGozHfuoRLfsQK07YH+8qVHZOpzD5h5nfLnu6VL31tk4qODZN6YV6Tu0cfKBcNeN15ou915Q0ca73U0D3TnS643HuoVMyZJyxN7yCk33CWz33jWeKPDeaCd9sCLjQPAPbp/j5D+fUdNktotjinV//kPjTJe7g8HXSWbli0wY+I5gLsT2G0vOcbcsnyJLB4/RjC3Bm2PC/Vha5DMxY/nWAToeKrJvqgAFaACVCBWBdyyb2jhlOLigwag3Up2b9r+s9z75idyzm86SNNWbWXED4d7n9vkl5O+LSvI0IV75X/7D8G1AvTqbbul5pcTpOC552T/tm2HppCTI41vv10KTz9bPtlWUTYUHpQrW1aQ/0ybKnO/Xymv3HK1/Lxjh7z00kvy2WefyaBBg6Rnz57Gs4kNgsOGDTNxz3+9/XZpho2Gq1ZJs7vukpwEhlb8v//3/0xc9NChQ6VLly7Gjn/84x8yY8YME6oAbyt0RfGWiy66SLp37248+4k8YMPVV19tNjjefPPNUvH772XTO+9I8/vvl/K/xHoncny77wMHDhgvtMIz1kpzbcclhKNGw6ahMAoMPPX5B6VDn6ulSs3apUI4AJtr50034R87NqwzcHnm4CdCABuvEI5w9sC2CcMHSq87HjMw77RHQ0TQzg4pARjv3FRg7N64ZH5orvDAOwFa26EPfIE4tvdlJiwF4L3qqy9MOEq6HgTodF052k0FqAAVyCwFDg/fKJbi4pLqgwAbbMbTWFV75jOXLpeRE7+Uey87T8Ztryrf/JKCzm5zXuMK0qxqrjz9XclmQT2wYfCSRjmy/dN/yYYXX5T9W7ceJmq5atWk3jXXyo7f9pbxO6uYdHe1dm+QQa+8I2/cfp00qFldPv74YwPRp512mtx0003GVmTguOOOO6Rt27by5z/+UQ5OmCB7N2yQVnfeKeUqVzbzgrcYMbkAWOSIxjzhuVZvMTy2mDO82AA/eIv1SwTOw/kAQHib1ZMcDqCxSRGp7bDhEJUMkREEmT4GDhxosn9Af2xshIcW9sOb7rQH3nW0gecatsEGeLfRDvbbX3Bgr26UxOP+/fuHALr4669l24QJ0uzmmyWvaVOjOaAW89G+MWfMSeO9MQYew5ONcTAe2uAc/B0pN7i9qNAdY+HQEI5SmwnL6oG2gdUO67BDOPIbNDZA2aRTt1DMNMAUMdStuvWMawx0OHucV7rtTQbQK0DDqw3b1Otsx0fbHm83gMYYgOQDewtLAXQm3LoI0JmwipwDFaACVCD9FXAD6KKiAwY0I8U/vz99rny1bJUMuPBMeXx5ObN50HnccHRFKdh9UD5etz/0UvOqudKnYY5Um/hxSdjGTz+Z1yrWrStV27WTnXPnyoEdO8xzFerUkSOvvEp2/PYcWXGwqpxQo1gue/gZGXJJbzmt/TEyf/58eeaZZ0zoBP5HyAYKqcDz+/vf/978G/PGG/Ljhg1yw8CBZj6zZs0y2TIAgADWo48+Wvr06WOAFB5kHGeeeabJpIEqh3PnzjUeZXhxkZlj6tSpJk80IBDZP1AFEanuwgE0Uu0NGTLEVCoEQMJbjhR61113nTl3ypQpJk0eoBgw+n//93/mecA8qioCZrGJEx71c88912x6RDo+taFBgwam0AvmAcj9z3/+Y7KNYF3h7Ua+agA8PNCzZ82SRbNmyQVXX20ykCCjCOaMbCUAY2QxwXOYL15HZhPdUKoFazp37mxsRVEawDwqPuK5cCkOdeHRj27q1HzQ5cp5COFQCEQYBg6EJdhwaodwwBP7yZBrQu00NEM3ESpAa19qHMI9NEQjXh5ojO1mD8a0Qzvwd6eLrg15xG2AtsM80E5DMAq3b4nogbY3VWpoioaeKJCn662LAJ2uK0e7qQAVoAKZpYAN0Fq+W2OgAW+aZcI565fGT5WtP++Sy3qdJo8uc9dkyLGV5fONB2T65gOmQdOquXJ2vRypOf4D2TL6Vdm/ZUsIlOtdcYXU7NHDeEjXP/ecSFGRidOtcOSRUrdvPynq2Vvq1TxCrn78ZVOd8MrTu8jPP/8sTzzxhEybNk0ef/xxk4bukUcekcWLF8sNN9xg8jXDM/3DDz/Iu+++a6oSPvjggwacka8Z4Lplyxa59dZbTQEVQDCOv/71r9KiRQsZOXKkvP/++3LFFVcYL/eIESNMYRVULAREAqh79eplxnr22WddQzhsgIaX+cYbbzR2/OEPfzBgjD5xIA0e7IZ3F68BZh966CFjHzy1ANzLL79c/vvf/xobANroDyB76qmnGo82wlneeOONEq2bNpW1a9cab3S3bt0MQMNbj1zV9913nxnvxRdfNAAPjzjGwJcKaIr5orLjk08+acAdXxRg1+rVq6V27drmH8ZGOXTohi8s0TKP4NrCFx387wug3S6taFk4bM8rYoudAK0hDXbf4by1gF0cZcnCYfetAO0Wz+z0QGumEedGSWcMtG2jetTdspLEa7NjKm+BBOhUqs+xqQAVoAJUwFYAUAOQdgPocHG6T30yyRRJ6XPayfLFVvcNaRc1rSCztxbLml1FUr18jnTIz5FKn30gm18dJfs3bzYmIBa3Xt++cuTFF0u5KlWkuLBQNn/wgax78kmkbyhpU7OmNLzxJql99lny93fHSoNaNeWGs081NsPD+uabb8rvfvc7ufTSS03FQXheb7/9dqlVq1YIoFH4BIAKgAZYX3zxxcbLDgAFeCPPcySABoTCIwsvN3JDo5rhbbfdJh06dDDAPXr0aFeABuwiNzRCMxCTDCBFxUPYB5AGEKM/5K+GjR9++KEp+oLKigBoeH4B+PAKw/sMD3ONGjVMaXLANb4g4MvALbfcIq+//rrJWX3PPfeYOcFbDrhFcRknQGO+f/nLX4znGmEeCDF54IEHTGEYG6ARdoKQGHi6r7nmGgP9AHz8jS8N+HICL7ZbnLx9jWGtANAIKykJ4UBOaA8eaK8AjXaabg7A6iUGev+eQhO20a735Sakw44zBrQibEJjpBFD7CeNXTh74D3W0IwKlfNMiAUOjckOFwMNb/bCsW+ZkA6EcIx7+DazKRIx3pgD7APk2wDtzEDCGGje+KkAFaACVIAKxEeBcB7oAweKpFKliqHsFs7Rnvx4klQolyv9epwk5SpUcDWmcrkc2V8sgowdFXIOyvZx42T9M8/I/k2bTPucihWl7mWXSaO//EVyfskJrB39+Oabsu6JJ0L95lauLC2GDpWDnY+XT/47X/p1P9G8Bi/w8OHDjVf5j3/8o9x5550m1AFgCS+p7YFG2MPf/vY342nFAWg866yzDDAirCISQMP7C481KhRiTMAwDnijAdCA13CbCG1xUM0QAIrQB3ixUWYcXmCAKAAZcAmABrADoOFBBlTjwFohPONf//qXAX/MB88BllEV8bXXXjN/w8OMcfD6tddea8JHnAANjzO0QPjKn/70J7POr7zyivlCYgM0wHjw4MEGmC+55BITK43z8OUEGybnzZtn5hALQOfm5oQ2WOaUNQa6dffzQhk3IJZm11Dv7/pvZ7tm4UD4hr2pzhlegQwZmhdawyHQf7QsHNHs0cwg6GfxuDEmmwcOwDAOZxYOZwYNtRPZOVp27SH7CncdBtDox874YWfyiM/tI/m90AOdfM05IhWgAlSAChyuQKwA/cyn/5F9B4rknFNPlqd/ODz+GSMNObaSzNpcJA0rFMlRC6bJuqefln0FBSEj4HFucscdUrNnT8mtdCi380Gkops1S1bcdZcUIbXdL4eB6AcekIondJEqVUuKrQCSEWMMkEOYBSAX0IywBng8bYCG9xTwixhieFrhwUXIwtlnn20yYzz66KPGCw8ghkcYcdUIiwBQIs4ZfyNWGnALaIUHFh7cSAC9ZMkSA68ImdBQDM3I8eqrr8p7771n4o3hcUYMMzZG2gCN9UE7/bLw2GOPGfCGRxpgfP/99xtbkG0D7eBVx3MoS44QC3ypAOQ7ARrhOYjHxtwRggIwxnwwvg3QaAeARn/xBuiYPdB8I2evAgTo7F17zpwKUAEqECQFYo2Bfm3yTFm9aYv8oXcPGb5MpMiFof98dCXJKyfScNdmWfPQQ7Jj+vTDpl6xfn1peMMNUvO3v5XcvDw5WFQkP8+cKWuGDpV9v4R52CdVatxYWo8cKeVrHSrUhhAOeIARHgAYhecWcbo2QKMN4pER1gBYRVgFQjIQNoEQCEDiU089ZTzR8BA3adLEeKQLCgoMUCLjxvPPP2/S5WFzIkIxAKCA2EgAbcdA2/NAaATCKz7//HMBFCOkAjZi46AN0Dhn1KhR5lS0xdx69+5tgB8xzrAbAI0vCpgLQkYQWoLnkPEDMdZuIRwII0E7xFajL3iUn3vuudB8NQY6EQANb3VuLsI4YgzhCNIbiLYkVwEC9CG9sdMYO3l5UAEqQAWoQPIViDULx2dzF8pncxbI3ZedKyPWVJCNhcWHGX9+kwrSoWY5uIkl98v/yIaXX5a9a9Yc1q5y8+bS4A9/kBqnniqF338vK4YMkX0bNhzWDlk5Glx3ndTp06dUTmd4kxFTjBCIc845x8QM47ABGnCJeGJsjAMUYvPb5s2bjScawIpQBrT54IMPTGgHvNXwNsMrDIAGmMMDjQMb+BDCgXMRbz1gwACz2dAthCMcQMNzjpALjAcIhwcY8I4+AbTwoGtIiQI0so7ASw5PNjzigHB41BFeAZDGWOgTBzYRIoRj69at8utf//owD3THjh3NxspPPvnEtEesO8JHcI7GYKtW8fBAx3UTYfLfJhwxKAosnvC+fDSob1DMSZkduGHghoebAeLXcCPCTQybPHhQASpABahA4hWIlAca92aAlVse6EVrCuTxDyfIref3lFUV6smEgkOp6tTq/8svZwqgTNpwQE6utldk6n9kw8iRsnfdutITy8kRA9HXXSeVGjSQ1Q89ZEDaPpDmrsH110uNs882Mdd22jRkiEBcMKAU4QqASxzwSE+YMMFs1sMmQxzYZLdo0SITB424X4RqIG0cPMzw6CLFHcAaIQsAU0Atwi8ApNjwhxhkOH2QwxlwDW0AqIDz5cuXmzASZK3AZxvGAsAi5AP9OQ9ktUCqPKSRw+sIB1m2bJmBdWQBwfmYJ74U4IDNs2fPNvbDiwvwxrkAX2yMxOeovo7nYDdiqOFdRho+ADjsxHzh8cZGSIS8YB7YmIi4amTpgAcennb0hfnBG40Ue4B9fPnABkZcF/Bwow/Eh7tdI/Z8EVqCLzS43uw80KFy3n5ioBP/tuAIQVWAHujSK7Ny5UqziQLfhPETFd5kSPWDb9o8qAAVoAJUIHEKKEBjBGcWDhEUUinxTDqP3Xv3yd/f/ERaNThSLjj9FHl44R5xpoKuXE7k7mMrmzzQtSrmSq+a+2XHpIlS8OyzhxdPyckRhGegjDfCM1bdd5/sWbHCDFuhdm0T5lHrzDNlQcFm6dCyyWH2AKIxl5LwgNzQ6/o8wE9jj5GPGL9+Yl4AQ3t+gHC8pl8cAH4KfABy3eiH89A3Dryu2un4sEUrOjptso2HLfjMg8cbYI4+tcAIzjfztzZpwgbEQKMNnFD425632oi5wkYtiAMbbXsQ/40UgIBuADG+QCCEA18Y7r77bgP96AsH7Ed/Ol/dMKhje/kVuaQS4R7RjYMlqexyY9tEmLi3A3sOugIE6MgrhB3E2N2LNzVS9vCgAlSAClCBxCjgLOWt4KewBcAKl2HhvS/nyPvTv5aXb7laPiwQmb21BPjs47LmFaRhlVwp3P6zNFg2TyrBO7tkiawZNkwO7nOU/87JMfDc6qGHJLdKFVl5zz2m0Ao809V/8xvZMWOGVL/wIsmrxLC/sl4N8GYjNAQx11p5hg0wAAAgAElEQVR5ESEriJdGJpN4lxkHfAOgEfdMD3RZVy+LzydAR198/EyG6kn42U0Tw0c/iy2oABWgAlTAjwI2QDtzQcNriDAHAJZbpbntu3bLDc++IT06tpU+p54oC3cUi3Mv4ZEVc6RN3gHZMmaMrH/2Wal2/PHSZNAg+d/cubIaael+8XLaNiMjx1HPPWc2Fe5ZuVKqtmkja4YPl52zZ0vdq66SxjfdVGqKOodo1fD86JIubTF3t3mHe96eF6B2xYoVJu4aHnSEkGDzYbyPw3NAYwNhOWM3QzjirXaG90eA9rbA2FWN3JZ4cyMmjAcVoAJUgArEX4HD46CLQj/3A3DghQ4X4/rRzHnywmdfyON/uFSaNqwva3YVyx7LEY0SK/Uri1RbtsDkdd69dKnkd+tm0tdtnzpVNrz4Yqh0tz2zvFatpNVjjwlS2iHkY/sXX0jFBg2k5dChUqVtW9MUoQyI8QX84UAYAgqdZNOBmGbsH3IeKEGOEttBOLA+WCscrt5ngHQ8YqDtQid5+YfStDhFCFcQJdw5ftsHQfRMtYEA7X1l27Zta9IJjR8/3vtJbEkFqAAVoAKeFXCLgwb0aElvxOeGC+PYt/+A3Pf2v2Rn4R65/txe8t2B6vLfLUVS+EteOwD0MdhM2LScFM2ZJT+OeFEKv/tOapx+ugnNgFd54+jRocqEBrKqVpW6l15q8kP/+NZb8tOECVKpSRMTH13thBNC88KGOxQgATgDzLDRDxk0kNtZ45t1Dog1xkY5fBFAnDO864g9RhwxwhXgjUVYA+apscXQAOfBA4/nbE8vNEMWDLRBrLGWwsbzsAcHzsU4GsOMv1GREG31NXj4NUMFzsP4gE28ji8DeB3zwdgaS41QC/SJcZH/Ghk18BzGwjmw94UXXjAFUnDYceCI71avr1MnzB/nwsZ4HiXhG4UheFbvM3RQTVMG0JFAW0XwCubxFI19uStAgPZ+ZSBPJqoe4ebAgwpQASpABeKvQLQwjvLlK0iVKiWFS9yO9Vu3y2MfjpdaR1SVc07qKqsOVpdZW4pk1y+7CquWz5FeDcpLp3yRfbNnyrYRL8juZcsMRNe/8kr53zffGFBGeW/Ac70rrzTwvPG11ww8V27ZUhr+8Y9SvUsXySlfPmQC0rYhy0WzZs0MUAKQAdXY6AcoRTYMACMyVQAKkX4OEIqS3sg8AXDGZwuyTKAvnAfgRn+AbGTlADjjQN5oBWP8jV9Gka0DfaDqH2AUfWFcPAeYR1YLnA94xHN4DUCMHMzIpIEvJoB4vIZx0RYOI2Tz0GwVyPaBYi7oD+MD2mEb5ovXkNcaRVW0kiHaIEXfyJEjQwCN+WMc9A2PNc5FH9AOmsF+ZATRUAtkMUEe7Xgc6BNfCDD3Q95nbCA8FL6BcXwBtFYXRDU/HKg62KpbT1PFb8WMSaIV91DyenT/HqF5oKpg7RbHlGpnVxTU0tqR+rXbA75RYvuTIdcIKgV2vuR62bh0vinLPWv0U1KjUQtTIlztPbb3ZaaqoZYI37RsQchW9OU2L5zP45ACBGh/VwO+oSJpPd78PKgAFaACVCD+CihEA3Q0Flq9t3gOcOeWjQOWIO55wcp1Mvo/M6R6lTw5p9sJsrtyLZm2qVgKCosFXugmVXOld6MKUkmKpOq3X8mWx4bLvo0bpcZpp0nd3/9e/jd/vmz917+k1jnnSO2zzzbx0j9NmiSVmzUrgecTT5RcR80AQC+yOCFNG8AY4IjiKNgIp1UGNX0aUs3BO4vPE6SOA8iiPSrvnX/++SYlG1LBIb8zgA/tAMXt27c3Y6iXGeANjy9Sup1++ukmvAWADKBGSjz8jc3vSBsHUMdeHqTGA5QeeeSR5tdUbJAHQCPEAgDcoUMHA7KokIjUc9gDBKjFuEjtOnr0aFMFEGPDPhR+wZrUqVMn9BoAGnOG7cghjaIs6oHGa/Au4wsE0tZh7vgb4S+IecZc8TzGRB+wE8Vm4nE4vc+aeaOU99lvCAegdfv6laZ0Ncprf/7M3+W0G/8uu3/aKtNeGGrKYuPxhOEDpdcdj0nt5kcZ0F07b7qB2x0b1pVqp+csnz7RU79uY+Q3aGxKieOIBNAK8LAdMI2S3Ds3FZhzlk7+xHV8L17yeCxWOvRBgPa3SrghvfzyyyaZPY/ICkybNk2eG/EyZaICaa3A26+XFIPgkTwFInmhAaEAHnhMw23UKyoulsVrCuStz2fLz7sL5cKTj5djWraUxT+LzNlaJJv2FEvn2uXk5LrlZc++ImmwapGsvuduOQAvKCD6iiskJzdXylWvLuuefNJULaxYr540vvnmEni2Sn2rKgBoQC5AGF5VQDTSoWLzOUATKdkAcABnQKoeAFrAIoD3rbfekl69ehnIPeuss0wlPpTAxpcFfPYAMJcuXWrmDycOPNqo3gcPL8pnY1zkmQYQA7bh6UafAFB4dQHZgHrAMs7D3h7kioYnGKCP/NUAXs2zDMgFOAOSMRZsRHEU5GbW8uOAcv0yg0wa3bt3N/0htzM2BcIjDRsUoOHRhk4IiURsNPSARxv6wIuOvuB9x14jzBOvIxSmrAeuKfTrzP2s8BwK3ygLQNtGRgq1WDd/piwY+7ZngA7Xrw3pAG6F8vKV8sQeI5wHGv0Cms9/aJQAjG2bbYAvq/iZej4B2t/K4qekgQMHmlAOHtEB+toBg6X1ef0oFRVISwU2jBstX02flpa2p7PRToC2M3IgtlbDD+C9DHcUHzwoP27/Wd76/L/yxYLvpEPLpnL5aV2kaf268uOeg7J6V7G0OqKc1KucIxVzD0rhkiWy/PbbTU5o5Hiu36+frH/uOdkxbZqUq1ZNmt9zj1Tv1q1U1UF7bAA0QhEAmwBZgD48ugBa2A+vLyAUrwFu9Zg1a5YBaBQrQfVBlMZGCWx4ZDFXwDa8ygBy9IFx8NjOUIEiI4BVeI4RkoFwCEAqxtNwEQAv4BjFSQDQaIusUngOcA1P9KeffmoKmwCgP/roIwPegHnNfNKjRw/jTb7mmmuMfSjmgjEw17PPPtuAMs7H8wBfhGrgC8E777wj119/vZkyIBnzw5cJrUwITzUe4znMccmSJcYzjQPhKvhX1gO2aL5tO++z7X3GGCYmO9wmwnBhDYDQqc89YGxEaIaGRqh3GHBqt0G7ThddGxGgnee49esEaPWEo3+vAG2HleA8hH9cMOx14yl3m1dZFyKTzidA+1tNfIPHv3vuucffiVnYGh5oAPTFL03IwtlzyumuAO+NqV3ByF5ohHZEDuVQ69HPf79bKa9OniGrftwiLerVkW5tfyXHNmskjWrXkIq/FAYpPlAk+7+ZJxuHD5N9P/4o5fPzpWjnTsmpUEGa33uv1OxxKHzVTRkt7GEXGgFYIk4YwAag1MIkdhtAN14HFCOUAe0AzjgP7fQ8gB3+dhsHc8S5eE03JwLcccDpAzvwGuKbAeOAU4AjPLJ4jNfxv/M1jZkGjMMOeMFxDgAbB/oESON5PIe4azxGe/QPezW2294MiD4wb7ymWsBenIt2mD+AGprEI/5ZQzc0ZEPjn+3UdQrP5v9Ys3AghGP8wwPk5D8NMQIpQCP+2fb0evFA26ES4fqNxQONvhCfjbANHOoJh9c63GGPD7DmUaIAPyT8XQn4KQmVCQnQ0XXLNoDWvRhd+t1m9mrgcD4HBwZ+TcP+Dt0jgnYIOdu4ZL7ZYwJHQ16NOvLhoKvE7iu64oe3wH16e8GakD2x9JGt5/DemNqVtwEalpRU1zsoxcWH0toBiCKltbNncKC4WOavWCtfLlom36/fZEI78JzZQCY5Jnb63M7/Jz2LdsnG55+XPWvXmqqDTQYOjArPqVWKo0dSAF8O8MVAQzdyc0uqDqKIigK0nh9TFg6AsW7QCxcDbQO088YfLgZ67j9HRO3XGWeND40zBz8h9dt0PCwGWmOb7Q8aZww0YrMXjn3LhHSEG58x0IcuN35I+Lv5EKC960WAPhygca8F1GrIma0mnleAxi+AZT3cgL6sfWbT+bw3pn61w4VyaGVCQDW8lOpR9Wpx4d59snH7z/LT/3YJyoDjQEXBI6tXk3pH5Mn/pkyRbWPHSu3evaXWWWfhd32vXbNdgBTQTZu4Tmzvsx33bMc+h0DajwdaPbrIuIFDQy30eTzX+97njQcaGTUQIoHsGYvHjTEbDHHAI4zDzqqhz0fq15mFQz9ETF9/vju0IXD/nsJQto8u/W6Vvbt2ilsWDjt8I9y8ArS+KTeFHxL+loAA7V0vAnRpgIZyyDCEA/epcx94Wb5+b4T5O5oH2s40ZN+j8VgzF2m/CF+rUrN26H6p91L8Yme31RA8vG5v2NZ7LSAe5+g9GfdjhPnhf/31z/vVkH4teW9M/ZopQMMSzQ9d4oku+QdAwvOxQHSk2RXv3Sv7CgqkYsOGrhsGU68MLYimAK4NhInoplMboJ2hG+jL3pAacwhHNKOS+bodJhIpPCOZNmXaWPyQ8LeiBGjvehGgI3ugvYZwtO5+3mG/xqkX2/4FTx0W+Q2bhfam2GEgtodbf7kDJHfpe4tngM4GcNYrnPdG7+/1RLe0i6scSmtXEgetEI24VsTUhqtSmGgb2X9wFEAMNeAZX7IAxuE2DTpDOHQGBOjgrGWgLeGHhL/lIUB714sAHV+Axq9/6jV2OhTcPMsIrbMB2hk+oik/T7/pPpny9L1mYeEJD+eB1l8mvV8B6d2S98bgrJ97KAfioUsgWj3SACKEc9ib9IIzC1qSDAWQaQPwjMPO86yPnSEbbqkQMwKgkyF2to/BDwl/VwAB2rteBOj4ADQ2JNqhbVgBBWndD4K/kbsfOfwVhG2AVi+2FrXSVUSRLA3PI0CXvrZ5b/T+Xk9GSzeIttPb2aEdSLsGb3S4PNHJsJdjJFcBLXUO77MbODuLpcC6cNcHATq5a5e2o/FDwt/SEaC965VtAK17Ltr1vjxsFg7bC+w1hMOunmrv60DFWKT91HAOt83dkTzQupKa2pQATYD2/u5OTctIEO2EacARQBre6HA/1admFhw1XgpoaA+8zkhVh7+d8Iy19wPPBqz9bCKM12TYT/opQID2t2YEaO96ZRtAK4juKFgdyrKB0IpZrz1RKi99OOANl8auVbeeZkOgc1MfQiqQok77L9y+xWTxsPPze4mBRlyzDfbIuIR+dLNgvLODeL+CUtuS98bU6u82unNTIdrYmwvxWGOikfIO4R2AJ2wyxD8nTAVvhrQomgJa3h1rDWiGxxmPc3JyTUrCQ6EaJX/bX55KbRSMkFmFAB1tFfi6UYAfEv4uBAK0d72yDaChjDPzD56zY4ftUIwrXhwriyd+YAT1m4VD4dYeD5k9qtauaz4wkCZPPdJ27PTSyZ+EMoHY8dR2lg88jy8BbsAej/R63q+g1LbkvTG1+kca3ZkjWiFavdD2//pYBHB1aEOZWyaG4M44ey1zK6ijaQyhip2Szo5zDlskxUNKQgJ09l5vvmbODwlfcgkB2rte2QjQ3tVhy6ArwHtjsFfILcWdeqRtL6UN14ceH0rtzDjpdFrnknWz4bj049i9zrYKZQJo/Oy4dt504xVJZPo4pqlL/YXLDwl/a0CA9q4XAdq7VmwZPAV4bwzemjgtihTSoTBth3joc27/B3+22Wuhe+aMkl8UnDANlVyLo3jwPKvCaQHQ2Xs5BGfm/JDwtxYEaO96EaC9a8WWwVOA98bgrYmbRTZEO8E4UqhHJBhPj5lnvpXOXwdsMHaDajdwtoHaq2K+AVpj8xBH17Jrd1PpTz3Q2GCCClQ4sPMbu8IRMzfthaHSsF1nmfTYnaayFkpwoy0qD9rVqpwpmDQm0PZAzxr9lOzbtVNWzJwsm5YtKJXv1I7PQ9olLYOrm3Y0NZPa5lUktmMMtN9rgADtXTECtHet2DJ4ChCgg7cmkSyKBNI2WHvxPh88mF5zzyRr3RzF4Tb/RcvpHGt4ji+AVkAFANdv07FUVSpsOlk49i0Drah6hV3daJdXo85hSfqXTvrI7DbHMWH4QOl1x2OlHtdufpQpJavhIdh1vmDs2wbUAdB2dS0dRytmYac4NrBo8n+cA9uQxgmvYTMNcqAiF2pefq1Mup4SOhd+SPiTlwDtXS8CtHet2DJ4CvDeGLw18WJROJB2QrTb3176Z5vUKBDOGw1rIr0Wi7W+ANoZi+z0DNdo1CKU1xQAi6NNzwtDkKxgbMPs+IcHyMl/GiJ4zT7svp0AjXaAYfUsH9v7MnMqxlSvs3q+zxj8uCyfPjEE0LGIxHPogfZ7DRCgvSsGgD7ngouk2Yk9vZ/EllQgIArs3rZJym3fIN8tXBAQi2iGHwWcIB0OmN3a+RmHbROrQNhiJy6u6lg9zs4ZhAVot7AHnGxvGlTI1RKvTTp1CwE0PMgAZQA0QjgAsvD46vPqDbYB2g4BwVh2FS3bA62g7gRo5CS1D4SLwNMNOLf7zrZSs/G4bOll8aciAdq7XgDoi/tdKyf0/6v3k9iSCgREga2rf5Ats/5NgA7IepTFjGiQHO31sozNc8umQDQojvZ6LKMnxQPtBaCR3N/2IEfyQIcDaIXsSBlBEMIRzusdi4DZcg4B2t9KE6C968UQDu9asWXwFOC9MXhrQouoQDIU8AXQmowf3mM/MdB+AdqtdG00D7QzBhqebo3JnvvPEaLQzRjo2C4rfkj4040A7V0vArR3rdgyeArw3hi8NaFFVCAZCvgCaBhkZ8o4666n5ae1y+WUG+4yeaAjZeGIFsKR36Cx2ZSITBkIvUCfi8eNMaEfKBkbDaCxcdDOwmGHbzirfjGEw/+lxQ8Jf5oRoL3rRYD2rhVbBk8B3huDtya0iAokQwHfAJ0MozhG8BTgh4S/NSFAe9eLAO1dK7YMngK8NwZvTWgRFUiGAgToZKicAWPwQ8LfIhKgvetFgPauFVsGTwHeG4O3JrSICiRDAQJ0MlTOgDH4IeFvEQnQ3vUiQHvXii2DpwDvjcFbE1pEBZKhAAE6GSpnwBj8kPC3iARo73oRoL1rxZbBU4D3xuCtCS2iAslQgACdDJUzYAx+SPhbRAK0d738AjQ2Ms9550UzwOLx75lNx5rvHc9F2szcsF1nmfTYneYcVEpF2xUzJskpf77bFGfiQQX8KsB7o1/F2J4KZIYCBOjMWMeEz4IfEv4kJkB71ysWgEbRJGTT0XSa1eo2NABsp6/c/dNW+XDQVQaU82rUMY+79LvNFHsCOC+d9JEBbxwThg+UXnc8dlhFVO+zYMtsVYD3xmxdec472xVIG4BGijp+yKXucuWHhD/tCdDe9YoFoO2iS3Z1UzyvOd/VG43/URHVvn9Eqojq3XK2pAKozjtDlrx8n3w1fRrloAJUIIsUSBuAxgdj8+NPFeR71gNQbRdpyaJ1S/pU+SHhT3ICtHe9IgH0gb2Fofzw6PG8oSOlRsOmobzwyD+vMNyl7y2mbZNO3YyXGYe+BoD2UtCpdvOjvBvOllRACNC8CKhAtiqQNgDttkAE6ORdtgRof1oToL3rFYsHWgsr2QCNEI5IHmgCtPc1YUvvCvDe6F0rtqQCmaSAb4C2q/11uuha6Xn7MFOF0K5QaD+PD7SKeVVlxcxJoc06+In1kyHXlNr849ZON/XYY7Y8sYec/9AoswYf/62/6VOf05jHTcsWhJ7Ly69lbIu06QheKtijHi71XrltRkIb+/ls2XzEDwl/b3sCtHe94gnQkWKgCdDe14QtvSvAe6N3rdiSCmSSAr4AGiWxxz88QE7+0xCz2Ua9PQ3aHhfarOPc1IM2AFhArwJu6x59zIYfvIZDH+umnio1axs4xvO1WxwTeozwDZyzc1OBAfcdG9aFfpZVoMY5znYbl8yXcJuOYJt6s/bvKQzNb8Pir2XtvOmhcXQzEsbR9ng89fkHpUOfqzN+8xE/JPy97QnQ3vWKJ0A7v+Ai5ANfiJ2/VjEG2vv6sGVkBXhv5BVCBbJTAV8AbcMmvM56OJ/H37rJZ+4/R4Qg2Qngzs0/CtP4X19D3LO9Ycj+IASQq1dp68rvwrZzvhZp0xHG1rhLO5ZSvyw44y+z5bLhh4S/lSZAe9fLL0B775ktqUDiFeC9MfEacwQqEEQFwgK02+YdTEC9sjZAA0jt523IBUDrrvhoAG3vnrcBGt5j+9C8r3jOBuhw7Qq3b/G86cgG6HljXik1roZrhAv5COICx8smfkj4U5IA7V0vArR3rdgyeArw3hi8NaFFVCAZCiTFA+0VoG0PtIZ3wANtbxiyRbFBHV7mcO2cHnKvHuhje19WKuuHc0H0S0a0dslYyESPwQ8JfwoToL3rRYD2rhVbBk8B3huDtya0iAokQwFfAO3MxayQixRRGiPsFgPtFaA1VhoTDxcD7dwkpB5o+xzEQNvtnHBtA7TtPUcMtI67vWBNyKuuz7frfblZk+3rV5r4bAA0Y6CTcZmm3xgEaO9rRoD2rhVbBk8BAnTw1oQWUYFkKOALoGFQuGwbkbJweAXofbt2yoqZkwVZNHTzD8a0s3DYZXsREgLgxWFvUsT5drtIHmic6yfbhltoi2btSMaCpWoMfkj4U54A7V0vArR3rdgyeArw3hi8NaFFVCAZCvgG6EQZ5czfmqhx2G9sCvBDwp9uBGjvehGgvWvFlsFTgPfG4K0JLaICyVCAAJ0MlTNgDH5I+FtEArR3vZIB0HbKTO+WsSUViK4A743RNWILKpCJCgQGoDNR3EyaEz8k/K0mAdq7XokGaISAffPRq3LKDXeZok88qEA8FeC9MZ5qsi8qkD4KEKDTZ61Saik/JPzJT4D2rleiAdq7JWxJBfwrwHujf814BhXIBAUI0JmwikmYAz8k/IlMgPaul1+A1k3BlapWk1mvPSktT+xhNhHn5dcyG4K3LF8ii8ePCW1EdtskrCkwK1WrLprvve+oSaG0lZE2RVfMqyorZk6SFTMmCXLDY5P0J0OuKbVx2fvs2TLdFeC9Md1XkPZTgdgUyKlSPf9ghar5sZ3Ns7JGgQP79kqj+kfKdwsXZM2cyzJRArR39WIBaBRN0kw9dnwzHu/cVCA9bx9mwjXsNJU7NqwLpdvMq1HHPO7S7zZT6ts+z27nlpZT022iEir6aN2jj0lryThr72ueSS0J0Jm0mpwLFfCuQE6L9r8+ePYjr3s/gy2zUoENi+bKD+88Jd/MmZ2V8/c7aQK0d8ViAWjAqnqdnZVPMbLmaZ/46CBp0qmbgWQcmu2nQdvjZMLwgdLrjsekdvOjTHpOLcS0ccn8UkWZ8JqOh8qq2n+kyqreZ8+W6a4AATrdV5D2U4HYFGAIR2y6Zd1Z/JDwt+QEaO96RQJot7zrNRo2LQW4ToDWvPPOc9UihF2g+JMWYULohw3QSyd/EiqiBC92uP4J0N7XOJNb8t6YyavLuVGB8AoQoHl1eFKAHxKeZAo1IkB716usHminh9gJ0Mf2viwU26xW2VDsBOhoHmgvhaG8z54t010B3hvTfQVpPxWITYGEAHRZi6LYpbb9TMuOd9R0VbaXqErN2jL+4QFy8p+GmJ9t7Z9z1RvlLPvtZ3ynR8rPudHawtbmx59qmq366gvzE3UyD35I+FObAO1dr1gAGjHQuunPGQOtgAsL7HvC/j2FpnJpu96XC0I4wnmgo8VAE6C9r202tOS9MRtWmXOkAocrkBCALqvQyQLocN6oWO1PFEDDw2ZDs8J0445dYzXV93n8kPAnGQHau16xAPScd140Aywe/550uuja0KZBty/vdhYOhG/gy2ckDzS+fEfKwkGA9r622dCS98ZsWGXOkQrECNDhChEAdJG+CUfdo4+VC4a9Xsqzi407OBc71TctW1Aq3ZQdc6i75bevX2m8rPAu4dAPu0gfZnbKKpyzdt700Icp/lao7XrN7fL1eyNMyiq1dcnE900KKtsbZXug1RMF2+35OWMr8QF++k33yZSn7y3Vv3q5pz73gJmPZg3Q8/WnZRu8C7dvkWkjHpZdWzdJo/YnmH5njHxUOvS52miLIxWFIfgh4e/2QYD2rlcsAK0b/lgYxbvObJkYBXhvTIyu7JUKBF0BTx5oN2Cz4w41/yomq+mcAKatuvUM/WTqTBXljDO0vc72Y4ytu+XzGzQW7KqvVrdhaJxwKavKGsKhQKyQa3uB7Z+MAb/4WRjzrt3imFIhIuFSaGlqrHAAPe7h20JfRty0B4BPff7BUlCd6AuNHxL+FCZAe9eLAO1dK7YMngK8NwZvTWgRFUiGAhEB2vYw28bYBQf0eRt63WKLAdk2DMPTanuRwgG0M67Z9lzPGv2UGV7jgeMZA+0E6HCLYXuTbYBW2HdLodW6+3nmi0A4gLZTdDnDN9SOZIdx8EPC39uRAO1dL78A7b1ntqQCiVeA98bEa8wRqEAQFYjZA+2WIkpDLhSgkW7KhkFnqIJXgNYwERVQK48hJ2u4DUNl9UCjEINuOkLFMbvamR2WojbhS4UbQGuVM20Hjbr0vSUiQIfTxb6ACNBBfDsdsokA7X19CNDetWLL4ClAgA7emtAiKpAMBWIGaKe3t6weaDssIpw32imIc8OQM64a7W2vd1mycGjf6plWz3I0D7RbCi1nDHQkzzw90Ml4G8R/DAK0d00J0N61YsvgKUCADt6a0CIqkAwFPAG0myFu6aGQFcJPDLTG+gJsEUes54eLgdZNeRr3jBAO2wOtnuEzBz8Ryvtql+iFR9lrGruTrhskkx8fEkp5pyCr3mMFaN3g6PRAw9ZwKbQ0hENjudFu1mtPmLhnZ2gLY6CT8TaI/xgEaO+aEqC9a8WWwVOAAB28NaFFVCAZCsQM0Lp5TsMbjrv4Olk+fYLJgGGDbbgsHJicppdCeETLrj1kX+EuA+AKpW5ZOOxQCreUVc7wCjvFlXp+138728BqtCwc2OioGUHsce2sILARB0BewVj7d2bh0PmoZ1yzk/QY+IgULJxrYN0J0G4bBpmFIxlvjbKNQX6oUj0AACAASURBVID2rh8B2rtWbBk8BQjQwVsTWkQFkqFAzAAdybiyFlJJxsTTaQzmgU6n1SqxlQDtfc2CBNB2fuiyFFXyPnu2THcFCNDpvoK0nwrEpkBcAVq90jDl/IdGCTJv8IiPAqxEGB8dk9ULAdq70kECaNtqtz0V3mfFltmiAAE6W1aa86QCpRWIK0BT3MxVgB8S/taWAO1dr1gAOlJxpYp5VWXFzEmC8DKETSG8Cpl8ohVDQvgZiidpiW96oL2vYTa35L0xm1efc89mBQjQ2bz6PubODwkfYjGEw5dYfgE6WnElwDV+Adv901ZTBbV1jz6hzc0wTDc662O7GFJejToEaF+rx8a8N/IaoALZqQABOjvX3fes+SHhTzJ6oL3r5RegvRZXsvPOa1ac7etXhgovqYV2WkkCtPd1Y8sSBXhv5JVABbJTAQJ0dq6771nzQ8KfZARo73pFAmhnwabzho40HXsprhQJoMMVQyJAe183tiRA8xqgAtmsAAE6m1ffx9wJ0D7EYgiHL7Fi8UC7eZIxqJ0BKBxAO3O50wPta7nY2KEA7428JKhAdioQGIDWDzEUKGnQ9rhQHGKFynmm7DVKYh9/+Z9l19bNcsbgx31l+HD+5Iultj9cy1Kh0Mtl4/wg93KO1zbJys7BDwmvK1LSjh5o73r5BWg7BjpScSWvAG0XQ6IH2vu6sSU90LwGqEA2KxBIgG539qWhNcGH4OfP/F1Ou/HvvqDZXlS/AK3n2jlhy5KSL1EAncz80ARof7cJArR3vfwCNHq2s3CEK64UKYQjXDEk+8s7s3B4X8Nsbsl7YzavPueezQp4Ami3yneaI7VS1Woy67UnBR9i2N2O8tybli0QxCoqCIdLOQXhtRph2zMuNuvwq1POCnmgT/3L3TL+kQEmHRVSUJ1+8wOy4F9vhjzQkVJZbVm+RBaPH2PswLF23nRTJbF8pTzzt364dr3mdvn6vRHGw61prqJVKESqK60iGC011uk33SdTnr63VP/OCoWqlRPY7Ty0qIo4bcTDsmvrJmnU/gRBvzNGPiod+lwt6A9HIisU8kPC322CAO1dr1gA2nvvbEkFEqsA742J1Ze9U4GgKlAmgEaZ676jJkn9Nh1NmMWOgtUmfRQ8NwBjO5XUmYOfCLWrVrehgW14hheOfatUuy79bisVwgHhxj88wJS5xqE5WpGiasLwgdLrjsckv0FjM772i7F3bioIAbNfD7TGUbp5oxSIj+19mTTu2NV4wlZ99UXE1Fi1WxwTmoNmA1CgVxiHPvbPx/B4OwEaX05Qghx9uMGyW9nveF14/JDwpyQB2rteBGjvWrFl8BTgvTF4a0KLqEAyFIgI0ABP5253GAVoxqGQDNizN+9EKocLKNTz5v5zhClyoJ5qN3ANB9DLp08s5VW2YXPW6KeMfYB0HIkE6HCLZG9MsgFaYR+x3pHm7QbQtt7O8A21Q2OiAffxPPgh4U9NArR3vQjQ3rViy+ApwHtj8NaEFlGBZChQJg/0grFvh7y84QDaCboK190HPGRAOhpIRgJoL6ms4g3QCAPZv6dQPv5bfxNaYsdfhkuN5QbQCBmxD1RMa9PzwpCH3Q2gbb3xpcAtEwEBOhlvm+hjEKCja6QtCNDetWLL4ClAgA7emtAiKpAMBRIO0M6NOPH0QHtJZQURbe+0xkDbO/nLkoVD+9bQDv1CEM0DrSEg9iI7Y6BtzzlioG2Apgc6GW+P2McgQHvXjgDtXSu2DJ4CBOjgrQktogLJUMATQLsZ4oTScB5oLafrFgNtw7S2iyUGOlIqK9iunmHYoKENdpw0PMoaZ619IbTELQb6pOsGyeTHh5iYbLRVkHXmlrVTY0WKgVZvdrvel5vxsDnR1gr2w+vtBGjGQCfj7RH7GARo79oRoL1rxZbBU4AAHbw1oUVUIBkKJBygNRQBGw5xdLro2lLZMDQLB0IhWnbtIVVq1fW0idDZb7hUViqiM7zCtkO9xeu/nW026UXLwgGY1fnY44ZLjdW6+3lmk6P278zCgfANO14boSnI7tH5kutl49L5rgDttmGQWTiS8ZbxNgYB2ptOaBVkgHbmnPY+K+8tbUdCuHSZybDDu8VsaStAgOb1QAWyU4GYATo75QrWrJkHOljrYVtDgPa+Nn4BWr8M49cqO2e8/SuY99EjtyzLngK3PRE6mqauDJc5xzkXv3YkQot4aZpp/RCgM21FOR8q4E0BArQ3nQLbipUIg7k0BGjv6xIrQB9Rp55Jgale2yBDo1smoEgKlXUuZT3f++qxJQGa1wAVyE4FCNDZue6+Z80PCX+SEaC96xULQCMffKVq1UO53zGaDY32Y3tDr+Zab9ius0x67E4TKoU9B2iPrDp2OJXtQXaGatlFjXSPQrgwNdgWDqAjFYPSFJ+R7MDGYruYlX6hwHwq5lWVFTMn+ZrXnHdeNAu3ePx7ocJSWqhJw+3wul0oy/tKZ2ZL3hszc105KyoQTQECdDSF+LpRgB8S/i4EArR3vWIF6FNuGCJTnx8a2tDrFaCxUVfDP3DO0kkfmb0POLQ4EzLzIFUl9iZg47G96Rh7IJxFjZybf7Wok6rgBtB2XLNbMSgAdKtuPSPaAWhXmIWNOGAzHgPOncWssKEZ88KmZYS/OOflLI5lF71yK/4U73zz3q+a4LTkvTE4a0FLqEAyFSBAJ1PtNB6LHxL+Fo8A7V2vWAH6jMGPi51nHgWU1GsbyQOtkKxVQTUdZuGObaFsPIXbt5QqFOUsDuUsauRMMWm/Hs4D7YRqZzEozKVGw6ae7bBtRJEqhWk3Dzy0Q+iLDfHOOWuueWeGIfTLEJFD1zfvjd7f62xJBTJJAQJ0Jq1mAufCDwl/4hKgvesVCaAV/rTwELytdnrJCpXzTIYb5FVf9dUXngAa4R8KkHZBIidAa0iGzgThHvBUAzSdRY3UO4s888587pEAOloxKAC0VzucAK1fJmyAVvjVUA/nnN2KNSlAuxV/0uxB3lc781ry3ph5a8oZUQEvChCgvajENgzh8HkNEKC9C1YWD7Sms4RHNL9hs1BlU9tDCkjUcAyNgfYC0DZM2rNx5sB3+9urBzpaMSgAdCQ7nJ5w/RseaDeAds7f6YGOBNBuxZ+8r3LmtiRAZ+7acmZUIJICaQfQblUF47XE9getHdtne6lsLw+Kv6g3y664aP+U7Nc2N++V3z7c2mNunz/zdzntxr8LPlybH39qqKiMl/75IeFFpUNtCNDe9SorQKtXdepzD5SKB965qSCUQ11je70CtDMGGveAhWPfMjHFzuqqdqGm+m06Go+43xjocMWgnDHQTjt0XhqnDS00BtoNoKPFQLsBNPqzw03s4k92GkHvK55ZLXlvzKz15GyogFcF0g6gvU4slnZ+AdouehAvsE8UQNt5ZG2YDle4wakfPyT8XVEEaO96xQOg9b2rm+P0b2TW6NLvVtm7a6cJ8/AK0ABaO/uFhm9o9VGnVzhcNg1VwUsWjnDFoCLZYWfNsItDhYsBB2hHy+qBrCIIRbEdB/aXFDy2s5V4X+nMbMl7Y2auK2dFBaIp4Amgw5WNhqfFjk2EN8IJkvZNOFxqJYVGO7UUYg31w8pOGdW21+9k8YQPjGcJnl5nqiZ4XbSSn/bhvPnrrnX9+RKv5+TkyBl3Pi7jHxkQ2nlvf/jhp1ZUBsRPwfhQxofdKTfcJbPfeNbEU4bzQNupn+wPHfsDF+P0HTVJ1Duk/ds76DctW2DG1NjFaDpvWb5EFo8fYzxyiBn95qNXjb34YMSBdcHh1YPED4lob6XSrxOgvevlF6C995zZLeP1pT2zVUr87HhvTLzGHIEKBFGBmAHauflGwwOcP286AVpTRtk/kcIrhDRQrXv0MfBqe2ucKaOcO9WdqZq0Dzulk93fjg3rzFjI/arj4jE8M3490NFCOOz4RSz+1OcflA59rjbXgTMTgJ0iSsNC0C5SKq1wP7faqanUk+SEZb9lv/kh4e/tS4D2rhcB2rtWdksCdGy6xfss3hvjrSj7owLpoUBEgAZ4OneJq7d0e8EacdsAE80zivN157bCdZueF5YCykjppJwArf3Z59jpqSKlYIJn1gbZRAK0en7dLgt7TgB8O67a3iTkTKUVCaBtne3wDR3fbxgHPyT8vaEJ0N71IkB714otg6cA743BWxNaRAWSoUDMHmgYZ4cnIAQBXtxoAK0bW3C+DdB2aqlIqZXccqUiDCEaQLulYAK4O8e1Pb66AGXZRGh/CbGrd9naYRyNX3QCtNcUVk5Pv9sGIntjJAE6sW8vArR3fQnQ3rViy+ApQIAO3prQIiqQDAXKBNC2N3P8wwNMRTBnjlRndSynZxR/Oz3QkVIrxQrQbimYnBv27HypNmzac4g1C0ekXKyRPNBeU2k5dba/qNADnYy3UukxCNDeNSdAe9eKLYOnAAE6eGtCi6hAMhTwBNBuhjjzrNox0FrmVuOcAaPO8rLo087NapfXdcZAO6t86d92urhwHuhIKZjsggyajcIZP2ynqNId7Oq1jhYDjTlqmAsAWmOg7YpfWggCbbEx0vZA2xphbGcKq0g6Oz396MveMMgY6MS+vQjQ3vUlQHvXii2DpwABOnhrQouoQDIUiBmg7TRRMFRDOPBYwxOQNaJl1x6yr3BXCKD37dopK2ZOFmSVsLNhAEorVatusnpEyjbh1wOt8dZu2TDCpYxzhlfYc9N5Y57RsnC07n6eyQnrzFRiV1dDeiz0s3jcGJPNQ6EZ/zuzcNiptKLpbAO0GywzC0di314EaO/6EqC9a8WWwVOAAB28NaFFVCAZCsQM0LEYZ3ut7fMTlfs4Fhsz9RzmgU7uyhKgveudCoB27mvAL2D4Uq+H88tquNk4HQnajnmSva9/urckQKf7CtJ+KhCbAgTo2HRLu7NYiTC5S0aA9q53EADazsYDy/FLl4ZIIatPNIDGL126byLcXgrvirBlOilAgE6n1aKtVCB+CiQVoONnNntKtgL8kPCnOAHau15+AVrDuCpVrSazXnvShHwBYAG8dmiYgrBmstFMN8gtr8/BU+zcxKyW2xtz8Zwd2qXhZ+FSX9q/trkVTQJs26Fc6F/7DPd8uPlESpHpfRXYMlYFeG+MVTmeRwXSWwECdHqvX9Ks54eEP6kJ0N71igWgAcDYm1C/TUezz2BHwWqzZwCFnDR3Ojb5atEkbVetbsNQsSbd4Gtn/bG9zfZ+i6WTPxG72JH2q9VDbQ+0DdUo1hSuaBL6VBvsX4iWT5/o+jzmo33lN2hs5q3z8a42W8ZbAd4b460o+6MC6aEAATo91inlVvJDwt8SEKC96xULQNsFhmxvb6RiQwBiPc+G1GgAffpN98mUp++VJp26hTLZ6JituvU02YRWzJhUasJ2znf7BSeUuxWjsuOz7XPt7ETwOrMSofdrLJEteW9MpLrsmwoEVwECdHDXJlCW8UPC33IQoL3rFQmg3cIZajRsKnZqy3AADUhWrzGA04ZrLwCtwKoA7VaMqfMl14fScdq54+3ZhyuaBJvcilHhXLfn3SrD2hmLvCvOlvFUgPfGeKrJvqhA+iiQc2SjpgfTx1xamkoFmjVrKl9Nn5ZKE9Jm7Hr16smNN94od999d9rYnCpDY/FAewFohHM4c8j78UBrDHSXvreYcAm3YkzhYqBVS9vrjVzz4bzGzjz2er79/IbFX4dCO1K1Vhz3cAUI0LwqqEB2KpCzatUqAnR2rn1Ms27WrFlM52XbSS1atJBzzjlHnn766Wybuu/5JgqgyxID7czCYYdP7N9TaLzO7XpfLhrCYcdA2wLYAO0smuQsBKXFqOb+c4RoHnc7NtqOgUastrPok2/heUJcFCBAx0VGdkIF0k6BnIMHDxKg027ZaHDQFejatascccQRMnHixKCbmjT7Fi5cKO3atTtsvEQBtHp8nVk4NH4Yz2sWDi95oN2KMUXzQHspmqTx01qwKVKRKjujB8M3knbpRhyIAB2MdaAVVCDZChCgk604x8sKBW6++WYZM2aMFBQUZMV8o03yqKOOktWrV8ucOXOkffv2pZr7BehoY/F1KpBMBQjQyVSbY1GB4ChAgA7OWtCSDFJg6dKl0qZNG9m8ebPUqVMng2bmfyrwOkMH/D9r1iyZOXNmKYgmQPvXlGcERwECdHDWgpZQgWQqQIBOptocK6sUaNWqlcDzOm7cuKyatz1Zhecff/zRPN29e/fDIJoAnbWXR0ZMnACdEcvISVAB3woQoH1LxhOogDcFPv30Uzn33HNl5MiR0r9/f28nZVArJzzr1JwQTYDOoEXPwqkQoLNw0TllKiAiBGheBlQggQr84Q9/kFGjRsnw4cNl4MCBCRwpWF2Hg2c3iN6xY4dcO2CwXPzShGBNgtZQAQ8KEKA9iMQmVCADFSBAZ+CickrBUuDWW2816exat24td955p1x11VXBMjDO1kSDZydEP/vss/LQsy8ToOO8DuwuOQoQoJOjM0ehAkFTgAAdtBWhPRmpADJQIIxj+vTpUlRUJDVr1pRatWrJnj17zONMObB5smrVqrJ161ZPU0I4x9SpU6XRMe3kijemezqHjahAkBQgQAdpNWgLFUieAgTo5GnNkaiAUWDKlCny+eefy8qVK2XRokWCoiuZcgCGd+3adVimjXDzg7caOjRq2ykhHmi7zHemaMx5BEsBAnSw1oPWUIFkKUCATpbSHIcKZIkCbpk23KauoR7Il52oGGgCdJZcdCmcJgE6heJzaCqQQgUI0CkUn0NTgUxVIBpE23HSfrNwoBrftBEPy66tm6RR+xOk5+3DZOOS+eJWcdAG6K2rvhetOMgqfpl65SV/XgTo5GvOEalAEBQgQAdhFWgDFchABcJBtHOTYSwAPe7h2+SCYa9L7eZHiYLxmYOfkPptOsrERwdJtboN5aTr7hQF6FbdesrHf+tvnmvcsat5fuemAgPfKO3NgwrEqgABOlbleB4VSG8FCNDpvX60ngoEWgEnRLtl6IgFoAHA5z80SvLyawk80gvGvh2CYfytr8/95wip0aiF1GjYNPQczgF0T3thqJwx+HHTBw8qEKsCBOhYleN5VCC9FSBAp/f60XoqEHgFFKIbNGggO3fuFK1KqIZHAugDewuNR3nemFdM8/OGjjQwbAPzwn+/K2vnTQ8BtA3HNkBriIeOW/foY0Ne7MCLSAMDqwABOrBLQ8OoQEIVIEAnVF52TgWoABQARM+ZM0dQNMV5xOKBdnqcvXig7TZcFSoQLwUI0PFSkv1QgfRSgACdXutFa6lAxilQVoCOJQYaXuuFY98KhYFknKicUNIUIEAnTWoORAUCpQABOlDLQWOoQPYpUFaAhmKIe/aThYPhG9l3nSVqxgToRCnLfqlAsBUgQAd7fWgdFch4BfwCdMYLwgmmlQIE6LRaLhpLBeKmAAE6blKyIypABWJRgAAdi2o8JygKEKCDshK0gwokVwECdHL15mhUgAo4FCBA85JIZwUI0Om8erSdCsSuAAE6du14JhWgAnFQgAAdBxHZRcoUIECnTHoOTAVSqgABOqXyc3AqQAUI0LwG0lkBAnQ6rx5tpwKxK0CAjl07nkkFqEAcFABAn3PBRdLsxJ5x6I1dUIHkKrB72yYpt32DfLdwQXIH5mhUgAqkVAECdErl5+BUgAoAoC/ud62c0P+vFIMKpJ0CW1f/IFtm/ZsAnXYrR4OpQNkUIECXTT+eTQWoQBkVYAhHGQXk6SlVgCEcKZWfg1OBlClAgE6Z9ByYClABKECA5nWQzgoQoNN59Wg7FYhdAQJ07NrxTCpABeKgQCoA+sDeQpn46CCZN+YVM4OWJ/YIVFlvlCef9sJQOWPw45KXX8u3yl++9Ig0P/5Uc96qr76Qk66703cfPMGbAgRobzqxFRXINAUI0Jm2opwPFUgzBZIN0ArP1eo2DIElSoEDOs9/aFRMwBpvycsC0JiLDc0K0407do23mexPRAjQvAyoQHYqQIDOznXnrKlAYBTwCtCAym8+elVOueEuKV8pz9jv9CSfN3SktDv7UvMaQHJ0/x7mcaeLrpWetw8z54WDZYBmjUYtzPkY68NBV8mmZQtKeadx7px3XjR9Lh7/ntQ9+li5YNjrUrv5UQbA9+3aKStmTjbn2WOG6w/92K/hnJOuGyRj7/uzrJgxKTR2hcp5pTzmfUdNEgAx7Jk24mHZtXWTNGp/gpx+030yY+Sj0qHP1cYm7d+pW2AWPwMMIUBnwCJyClQgBgUI0DGIxlOoABWInwJlAeiF/35Xtq9faTzJhTu2yefP/F1Ou/HvsvunrTJh+EDpdcdjkt+gsYFP9TgDdHGEC2tAPx//rb+06325gWm037mpwAD4xiXzDZQDYOu36XhYvwBaeLExPgD8zMFPSO0Wx5j+MB6g1+5v/55CGf/wADn5T0NCEA6Ib9D2uFIhHLbNGGPcw7cZcC/cviX0GMAc7kvG1OcfLAXV8Vs99kSA5jVABbJTAQJ0dq47Z00FAqNANIAGJH8y5JrD7AXEbi9YEwJouwHOWTtveimv84Kxb5u/Z41+KuRpdhPBGT6BvxXGAax2qIcN8Dbkqmf82N6XmSHsc+z+t678TtQu9aqr11hjoPG3DeCR+naGb+j8GMaRuMudAJ04bdkzFQiyAgToIK8ObaMCWaBANIBWCdy8qwqnU597wDTT0AY36NaNgnP/OSKiB9oZ4gGPtHqJAdA28DoBWkNAnJCroSQ6Fw392LD461Kgb8/VCdAI6bAPhKvUaNg0rD12WwJ04t5IBOjEacueqUCQFSBAB3l1aBsVyAIFygrQKpENugBTDe1wShguBhowjMMZPuH0QMcC0G5eZowFW7x4oO0wD3s+zvPpgU7+G4YAnXzNOSIVCIICBOggrAJtoAJZrIBXgHaTyN74Fy4GWjf4aRwz+rFjohVkNa64Ss3aEWOg/QK0MwYaoL5w7FuhWGkND1E7YU+bnheGjYHWTYeIr8Zh28MY6OS/kQjQydecI1KBIChAgA7CKtAGKpDFCpQFoHXDn4Y3aAiHQrGGTjjzPDuzd9jZNHBupCwcfgEaGwft/pxjuWULweZCxD3jwKZEZxYOzTbi9EBjXs4Ng+FCX7L4kovr1AnQcZWTnVGBtFGAAJ02S0VDqUBmKlAWgM5MRco2K+aBLpt+fs8mQPtVjO2pQGYo4Bmg8SH33IiXM2PWnAUVcFHg7ddfoy4pUIAAHX/RWYkw/pqG65EAnTytORIVCJICvgD62gGDpfV5/YJkP22hAnFRYMO40fLV9Glx6Yud+FOAAO1PL7YOlgIE6GCtB62hAslSwDdAX/zShGTZxnGoQFIU4AdgUmQOOwgBOrX6c/SyKcD7R9n049lUIF0VIEDHuHJ2nll74xJ+OkVOWudGoRiH4WlJUIAfgEkQOcIQBOjU6s/Ry6YA7x9l049nU4F0VYAAHePK2QB9yp/vNmV67Z39BOgYhU3BafwATIHo1pAE6NTqz9HLpgDvH2XTj2dTgXRVgAAd48opQLc94yKpVC3flAjesWGdfDjoKqnT4hjZsvI7uWDY66K5XbVSmp1OC95q7Jhv2bWHTHrszsO81urNhon2eXbqrrZnXGxmUKla9VDZYhvuO110beh5HS+/YTOZN+aVUNW2GCXImNP4AZjapVSAzm/UPLWGcHQqEKsCm1dzD0Ws2vE8KpCmChCgY1w4hVR4n5dO+sjAMqqfoUACgPjbf71pnrNL/ypgt+7Rx3isFZARAqLFFpAzFq/Z+V3dztMxYT6gvVH7Ewwob1wyX5D71q1PezyMw6NEAQJ0aq+EV199VfCvf/+SvMfpcIwaNUp69OghTZo0SQdzk2rjBx98IFu2bJHrr78+qeOmajCd7/Tp01NlAselAlQgBQoQoGMUXQH6oifela/fe0na9b7clA5GtbP6rTvK3H+OCHmgMYTtTdaQDzynIJzfoLGpjoYDIFy+Up557Dyv8yXXmwIL8CKjHQ77vFmjnzLwjeILefm1zPlagc35WoxTz7jTCNCpW9Jvv/1WunbtKkVFRdKiRQtZsmRJ6ozxOHKbNm1k5cqVUq5cOZk5c6a0b9/e45mZ3+zuu++WBx98UHJycuTKK6+U0aNHZ/Sks22+Gb2YnBwV8KkAAdqnYNpcAfqy5/8lSyd/ZJ7eUbDagDSOWa89EfJKfzLkGgE0K/yql1lDKuxKYwrQSyd/Im7nOfvQuGucd/pN98mUp+814Rn2oeEfgHobrmOcesadRoBOzZIqPHfp0kUmT54sDRs2lPz8/EBDNOB5x44dUlBQIN27d5dZs2YRon+5fBQm77//fjn66KPliiuukMsvvzxjITrb5puauwRHpQLBVYAAHePaKEAjVGJ7wRoDuzj0bwD0uQ+8LF+/N8I8D2+xlueNBtAKwm7n+fVA29OzgR3eaR4lChCgk38lOOFZLQgyRNvwrPYSokuUsGESj3G8++67GQvR2Tbf5N8hOCIVCL4CBOgY18gGaHSBuGP19C6fPjHkgV4y8f2Q1xfPq1dZY6DVI1yhcl7YUAy38zT0AzHWGFs3C0aLgaYH+vAFJ0DH+CaI8bRw8BxkiHaDZ0J0eHhWbTIRot3gOZPnG+PbnKdRgYxXgAAd4xLbAK0bADUuGeEXGsKB7rHJb9OyBSbLRtXadaVGo+bGI23HJDsBWjcOup2nnuwVMyZJLFk4ND46xqln3GkE6OQtaTR4DiJER4LnbIfoSDCZiVCZbfNN3p2BI1GB9FOAAJ1+a2Y2BqonGeZjU6GGhaThdFJuMgE6OUvgFZ5tiK5cubKsWLEiOQa6jIKNjXv37jUxz9GObAvn8AKTmQTR2TbfaNc7X6cC2a4AAToNr4Ctq74PebVhvp0jOg2nk3KTCdDJWYILL7xQxo0bJ7t27fI0IIC7Y8eO8tVXX0nnzp09nRPPRnPnzpXjjz9e5s+f7znTRtWqVeXMM8+U999/P56m1IFAbAAAIABJREFUBLKvevXqSYMGDYw+Xg6/6++lz2S2ybb5JlNbjkUF0lEBAnQ6rhptjqsCBOi4yhmxM6+bBP16qxM1Az9eZS+hHomyMxX9+olv9uO9TcVcvIyZbfP1ognbUIFsVoAAnc2rz7kbBQjQyb0QokF0UOBZVfEC0dkGz6qNF6jMBHjO1vkm987A0ahAeilAgE6v9aK1CVCAAJ0AUaN0GQ6igwbPXiA6W+HZC1RmEjxn63yTf3fgiFQgPRTwBdDnXHCRNDuxZ3rMjFZSAY8K7N62Scpt3yDfLVzg8Qw2i4cCTogOKjxHguhsh+dIUJmJ8Jyt843H+519UIFMU8AXQF/c71o5of9fM00DzifLFdi6+gfZMuvfBOgUXAcK0QgFQElvrUqYAlM8DWmHc1x66aWhqoSeTs7wRnY4R7NmzUxJb1Ql1MIqmTb9bJtvpq0f50MFyqqAL4C+dsBgufilCWUdk+dTgUApwBCO1C5HrVq1DIiedtpppqR30A9A9JQpU6RGjRqybdu2oJubVPsAlZdddpkcPHgwo+HZ9kRn03yTejFxMCoQcAUI0AFfIJqXeAUI0InXONIIgOYzzjhDDhw4kFpDfIxevnx5GT9+vACmeZRW4De/+Y2sWbNGNmzYkBXSZNt8s2JROUkq4EEBArQHkdgksxUgQKd2fQHQZ511luzbty+1hvgYvWLFivLZZ58RoF00u+iii+SHH37wnB/ah+yBbJpt8w3kItAoKpACBQjQKRCdQwZLAQJ0ateDAJ1a/eM9erYBZbbNN97XC/ujAumqAAE6XVeOdsdNAQJ03KSMqSMCdEyyBfYkxLIvWrRINm/eHFgb42kYATqearIvKpA+CiQMoNfNnykLxr4tPW8fJrNGPyU1GrWQdmdf6qpM4Y5tMv7hAXLyn4ZI7eZHRVXPWcr6lD/fLSddd2foPPv1Pg+PkhmjHpdNyxZI31GTpHHHrlH7j9Rg4b/flU+GXFOqSd2jj5ULhr3uyXYvg2OMtfOmG+3KV8oLnRLueW2gmp9+030y5el75djelx02X7T58qVH5PyHRklefq2w5qCNrpm9lrY9XuaSDm0I0KldJQJ0avWP9+i33nqrTJo0SRYuXBjvrgPZHwE6kMtCo6hAwhVICkBHgy4/AA2YG/fwbaWAFbC3c1NBCDjRZtVXXxioth/HQ003iI03YOILwIThA6XXHY+FoPzA3kKZ+OggadKpW9gvIl7siAWg46FbkPsgQKd2dQjQqdU/3qN369ZNcnNzZdq0afHuOpD9EaADuSw0igokXIGkALTtgQbsTn3uATMxeI679L3FgOG8Ma+I7cm12503dKSBRoVIp2fVfh79ju7fw/R/9OnnyLIpn5rHnS66Vtr2+p3xRu/aukkatT/BAPfGJfND7dFGvb62F9u2yw2g0XbaC0PljMGPG6+uF9vtLw2wD8CMIycnR3rf+7zpw4ZlG6oLt28J2Yxz1LMezgNtzwWao516oG2Pus5zw+KvQ152aF+jYdPQrwkYT9fLHls1qFStullL+7WEX8VlHIAAXUYBy3g6AbqMAgbk9CuuuELeeecdKS4ulr/85S/yzDPPBMSyxJpBgE6svuydCgRVgaQCtBPEpj7/oHToc7VUqVm7VAiHDak7NqyTDwddJWcOfkLyatQpBaq2qABOHOp11vARALL92PZe21Ca36CxAcNqdRuGoF5B3fZiuwG0/dzSyZ/IwrFvGUDd/dPWkO3123Q0/WufToDWOWqIiXMc/L19/Upp0/PCUt5pu53O1Q7hqN3iGPn4b/2lXe/LzZcQ6KQAvXXld6XCOWwNw4Vw4MuQevsxnuoJ7TGHLv1uC41j/yoQ1DcA7CJAp3Z1CNCp1T9eo6OwzHvvvSdLly6Vo48+Ol7dBr4fAnTgl4gGUoGEKJAygLbDOmyYVJC1va8Kcw3aHhcWoBUwowG0Hf/rhFQvMcRuMdAtT+wR8uja4IkVUyhVT3s4gHaGbNhe7QqV80rBt30l2GEbbgDt/NLh9JbbfdkaugG0M7baDivB2thz8BJOkpArOoZOCdAxiBbHUwjQcRQzhV0BJD/99FPZs2dPCq1I/tAE6ORrzhGpQBAUiAtAK0jpT/fOn/3tEA4bQDU0ww2gtS8VCaEH8L7aoRLh4M8NKjVcQ73RAPhIMIy+4bldMWOS2IAcaSOfW5yyQmk0gHbOyxmWYoO/HSICOzX0xA2gFeI1ZMMNzG2tdUOmG0CfdN0gGXvfn42XXz3l4b7cEKCD8PZODxsI0OmxTtGsvOCCC0yFxu3bt0drmlGvE6Azajk5GSrgWYG4ALTbaNGycNiAiDADzcKhHmi3DBJeYqABdn4AGmERdgaPaHNBiIZbhgw9z6sH2g4fwbluXwzUe43X7YwYNkyXxQO9fPrEUnMpqwfangMB2vN7MOsbEqAz4xLo06ePzJgxQzZt2pQZE/I4CwK0R6HYjApkmAJJBWhop8AKGPYSA71/T2GpGF6vWTjCxUDbHmhntgvN5gFP6+THh4TS6kWLgXZ6wiPFQCPGGsAOWJ312hMmm0g4gMa42BBpb2K0s2hoaAfOtz3sdqiFxl5rSIwdA20DtOqMLyCwL5YYaAJ0ht0dkjQdAnSShE7wMOeff77MmTNH1q9fn+CRgtU9ATpY60FrqECyFEgqQLfufl6pDA7O7Brrv50dSk/nzNYRLs8zhHLmgfbqgca5Cql4bIdqhHs+Wi5m9OOWhQPP29kwegx8RAoWzjWQHg6gEdqCMJL8hs1C2UHscBmA9Sk33CWLx40xGUCwKRBfEJyxys5xt67+Xk678e9mXDtM5biLr5Pl0yeYseBpR75rv1k4NBMJPdDJegun/zgE6PRfQ8zgvPPOM+W716xZkxkT8jgLArRHodiMCmSYAgkD6AzTidPJYAW4iTC1i0uATq3+8RodAP3tt9/KqlWr4tVlWvRDgE6LZaKRVCDuChCg4y4pO0w3BQjQqV0xAnRq9Y/X6AjhAECvXLkyXl2mRT8E6LRYJhpJBeKuAAE67pKyw3RTgACd2hUjQKdW/3iNToCeHy8p2Q8VoAJpoAABOg0WiSYmVgECdGL1jdY7ATqaQunxeps2bcwGwp9//jk9DI6TlfRAx0lIdkMF0kwBAnSaLRjNjb8CBOj4a+qnRwK0H7WC2/b+++835buZxi64a0TLqAAViJ8CBOj4acme0lQBAnRqF44AnVr94zU6AZohHPG6ltgPFUgHBQjQ6bBKtDGhChCgEypv1M4J0FElSosGBGgCdFpcqDSSCsRJgYQBdKQ8wM5qfc652KW9azc/yvNU7TLVefm1PJ/np6GdHxrnaS5r7UNzQKO8dttev5M3r+9dqhCKn7HYNjkKEKCTo3O4UQjQqdU/XqMToAnQ8bqW2A8VSAcFUgLQ0YSJFaCj9VvW11FERasMAtC1qIlWF7SrKwL80R5Hu7MvLevQPD+BChCgEyiuh64J0B5ESoMmBGgCdBpcpjSRCsRNgYQDdKWq1WTWa0+WqvJne6CdFQe79L0lVK3QLmHtVt1PS3FDjZycHFOVb/Ybz5qqfABcACyq6aGfzpdcLxuXzjdV9maNfkpqNGphwFYh+NjelwnKWNtV++zKhOGgXp/ves3t8vV7I2TemFfM4px0/WD5csTD5jEqJeLYsnyJLB4/JuS1DlexMFwVxLitOjsqpQABOrUXBAE6tfrHa3QCNAE6XtcS+6EC6aBAQgF6dP8e0nfUJKnfpqOBYvXUKkDXaNjUlJ4G1OKY+vyD0qHP1VKlZm0Z//AAU+ZaPbnq+d3901b5cNBVcubgJySvRp3QY4XfaS8MNQCNdhOGD5Redzwm+Q0am/FxRALo2i2OMaWtUTYc/cHOnZsKzDkbl8wP2Vq+Ul5obRXAm3TqJlqqXGEcAL99/UrTn90XzrdLgu/YsC40D9jgnDsGoxc7cW8nAnTitPXS8z/+8Q+57bbbpKioyEvzQLSpWLGifPbZZ9K9e/dA2BMEIwjQBOggXIe0gQokS4GEAjSg8fyHRoW8wTZMwgNsA7QNpU5vrzNmGn/jaNPzwhAkA7TtGOjl0yfK2nnTDfyibzsmO5wHGn3aNtv9bV35nStA6zmYTzSARlvAtA3dCsY6x1bdepYC6GRdCNk8DgE6tav/6aefysUXXyyFhYWpNcTH6ATow8UiQBOgfbyF2JQKpL0CcQFoBUINX8DGOiccO72xGkKhYRZQUjfk2QCt3mN4eBU2tS8AtHqcEbLhBGgFdvTtFaDhNbcPDSMp3L6lzADtDBtRvXQ8hHoAsO0wEmxG1C8BaX+1BXQCBOjULszw4cNl2LBhsnXr1tQa4mN0AjQBWhVgIRUfbxw2pQIZpEBcANpND2cWjnAArefascjOMIZIHuhIAO3FAw1Y17AN2KIhJbZHHM9Hi4FGuInCfrgQjnBx15GuJ1u3DLruAjUVAnRql6NPnz6ycuVK+eabb1JriI/RCdAEaAK0jzcMm1KBDFQgpQANPdVLbGew8BMDHQ6g7VhpjcHGeBoDbcc2a6y2MwbamXXDSxYOxFpHA2jYYcdA799TaCC+Xe/LpUHb40p51ZnJI/HvOgJ04jWONEL9+vXlkksuEcRCp8tBgCZAE6DT5d1KO6lAYhRIKUBrzLAd+mFnxlj/7Wy5YNjrZiNhuCwc4QAaIR12NguERyg0K7CumDFJuvS7Vfbu2hmCXjt8ws4CovJHygPtzOgRzevuzECC8A2Fa2QPwcEQjsRc+HavBOjEaxxuBGTg6Nmzp2zbtk1q1KiROkN8jkyAJkAToH2+adicCmSYAgkD6KDpFKmwS9BspT3JVYAAnVy97dFatmwpTZo0kS+++CJ1RsQwMgGaAE2AjuGNw1OoQAYpQIDOoMXkVGJTgAAdm25lPQsp4ObMmSM7duwoa1dJP58ATYAmQCf9bccBqUCgFMgagA6U6jQmUAoQoJO7HAjbuO6660zWjWnTpkn79u2Ta0AcRiNAE6AJ0HF4I7ELKpDGChCg03jxaHp8FABAz35sgDz71BPx6ZC9hBRYtGiRIExj8eLFMmPGDJk1a5Zs2rRJTj755LQL27CXlQBNgCZA80ZHBbJbAQJ0dq8/Zy8iAOi3rz/LlIPnEV8FUF0QsFmlShVp3LixnHrqqYKCG+m0YdBNEQI0AZoAHd97BXujAummAAE63VaM9sZdAYZwxF3SjO+QAE2AJkBn/NucE6QCERUgQPMCyXoFCNBZfwn4FoAATYAmQPt+2/AEKpBRCiQNoO3CIc4qf/FUlOnq4qlmdvRFgM6OdY7nLAnQBGgCdDzfUeyLCqSfAhkH0Om3BLQ41QoQoFO9Auk3PgGaAK0KdO7cWbZs2SKrV69OvwuZFlMBKhCzAgkFaK3ah4p+Lbt2NxX/UEobHuhIlQUbtusskx67U3DemYOfMG1RNRDVBLVan7MiYN9Rk6Rxx66m+uCCsW+HSnbv27VTVsycLJuWLShV1c+uONjyxB5y/kOjBNULtZqgszpizArzxMArQIAO/BIFzkACNAH6/7d37tFSVVe6X3ZrEJWAgkTwBcREoH2BiRcEjeYcREKieH2kjQqiIVGvxgAOkaBR4wP1KrQXH4kxmqDD2BGj0qGHCAwNBLW1FYw2oAkQgzyCHIEgEtGWO75lZvWsxd679quq9uPb/3Cos9dac31rVZ1fzT3XnKLAyJEjzX/8x3+YN998M3P7lAZRASpQPwXqBtACqADg/focZebcPsHOAgC9bN5M88asRyy0frCxzTwx4TwLyu07dbE/Dxg11qCkN8B52dwnbTlvXM/cNt6cdOUdVT+jzLcOD1m3dHEVQAOo3XE69zzUPPWD0RbGAd0YR8p8w7ZNq1fa323b/J557q7rzAmXXmfhmlcxFSBAF3Nd6zkrAjQBWhS49tprzT333GPefffdem459k0FqEDGFKgbQLuxyK5nuNP+PS0k4wLA4uoz5PQKJAsYa5idPXmcOe6iSQa/05fu2wVo3AcYFs/y4cPProwpXmfA/oIf32SGTpxili+cUwHojK0VzamTAgToOglb4G4J0ARoUeDZZ581Q4YMMR9//HGBdzynRgWogKtAKgDtFfaAgVYtWlgJ2RDIPfGy682z0641B/YbVAFoeJABygBoAVl4fOV18QZrgNYhIBir3xkX2rFcgBZQdwF6+ujWKi0QLgJPN+Bc9y2hIdw6xVWAAF3cta3XzAjQBGitQLt27cz9999vzjvvvHptOfZLBahAxhRIBaC95hTXAx0GoLdt2mAhVzzIQR5oP4CWOOmgjCAI4fDzemdsHWlOAgUI0AnEK2lTAjQBWivw1a9+1fzlL38xqLzJiwpQgXIoUDeABnxKnHGUGOioAL3b7u2r4qvDeKDdGGh4uiUm+5Vf3WcEuhkDXY43AQG6HOuc5iwJ0ARorQAycKBk/W233WbGjx+f5lZjX1SACmRUgboBNOarM2UMu3qa2bhquTn+4qtrZuFALHJQCEfHbgdYaEamDIReoM8lT8+wMcxtK9+sOkTo5YHGwUGdhUOHbwj4I+sHLoZwZHTnpmgWATpFMUvSFQGaAO0q8P3vf99MmzbNhnKMHj26JO8ETpMKlFeBugJ0eWXlzPOkAAE6T6uVDVsB0P/2b/9mhg4dmg2DMmDFj370I3PXXXeZ9evXZ8Ca5pjw7W9/2/zsZz+z++Lhhx82Xbp0aY4hHJUKUIG6K0CArrvEHCDrChCgs75C2bPvH/7hH8yiRYvMkUcemT3jmmQRAfpT4X/zm9+Yyy+/3KxYscJ069bN/NM//ZPp3bu36dq1q9mxY0eTVofDNluBz33uc+ZLX/qSQeEdXsVQgABdjHXkLBIoQIBOIF4Jm+KwGMDok08+KeHs/adMgK7WZtmyZTY/9Msvv2zWrVtnPvjgAwJ0Sd8x+OK0bds2uwd23XVX06dPH3PllVeac845p6SKFGPaBOhirCNnkUABAnQC8UrYFAfFbr75ZrNp06YSzp4AzUWnAkkUmDVrlpkyZYp57rnnzOGHH24WL16cpDu2baICBOgmis+hs6EAATob65AXKxC2gcfxc+bMyYvJDbGTHuiGyMxBCqIAzgoce+yx5v3337dPKHjlTwECdP7WjBanrAABOmVBC9wdvEX9+vUzv/vd78ygQYMKPNPoUyNAR9eMLajAIYccYvbaay96onO4FQoJ0EhR98xt481JV96xU9nvHK4RTa6zAgToOgtcoO4PPvhgc8ABB5iFCxcWaFbpTIUAnY6O7KVcCsATjTMV06dPZ0x0zpa+kACNKoU9vvwVg3zPcgGqdZGWnK0Tza2jAgToOopbkK4//vhjm03hr3/9q1m7dm1BZpXuNAjQ6erJ3sqjQEtLi9mwYYN57bXXyjPpAsy0kADttS4E6ALs1jpNgQBdJ2EL0O3KlSvNxIkTza9//WuDR61LliwpwKzqMwUCdH10Za/FVwAHC0877TSzffv24k+2QDOsK0Dran/9zrjQDLniVluFUFco1K/Dc/yZ9nuaFS/MNagEePwl19iy2jMnXWArDp5260M2JMPrvsFjrrLLosfsdWyrOfXmB+3rKCuOPuW1Dza2mScmnGfWv/V65TVUP4Rt//noT2ybJbMfqxoXr6HsN+zBdcpND5jDvvZN+zNsmn/PDYGvYz5iZ4H2UO6nUmaAxkG4mTNnGqTceu+998x///d/5349k04AGiDDRltbm009ddBBB5nvfe97LNFcQ1gCdNKdx/ZlVgC55ZHykHmi87ML6gbQKIk9e/I4c9xFkyrQCxju1re/BdeTJ041+/U5ypbk7tC1uwVLQCgAFtArgNu7dUTld5BV7ls290kL1Hvs3dnCMV7v3PPQys8I30B/W9avseC+ee07lRAOAWq0ce9bt3SxmT661Zbwdu2Dba/P+qXt76O/bavMb+2SV82qRQsr48j8MI7cj5/n33ujOXLE+YzLztj7o4wAfcEFF5jHHnvM5iVF/B1ie/fdd1+bo7Ts1z/+4z/aLBs4LHjuuecaVB3kVVsBAnRtjXgHFfBTAAcJ77jjDvPd736XIuVEgboBtIZNeJ3lcl/H/wG6gOZXfnWfvQ1g6wI4PL+bVq/cCaZxv/wOcc/SF7zJOmwDQC4x0G0r3/S9z/2dOy6+BIjXGWN//OE2+yXgwH6DqrzRuK9T94MqAK01yMneKI2ZZQLot956ywwePNggpnfs2LHmmmuuKc06c6L1VYAAXV992XuxFYAD47LLLjM//OEPiz3RAs0uFYAWiFw042dWGoQ24BKvrIZHAKl+XUMuAFoAtRZAa5DVAA3vsb4k9AOvaYD2u2/bpg1V0Ct9Dxh5+U6grAFa5i5jS7iGX8hHgfZQ7qdSFoDesmWL9Tb379/fzJ8/P/frxglkSwECdLbWg9bkSwE89br00ksJ0DlatlQA2mu+cT3QYQFaPNX4F15nXPBAS8iE6/HVoA4vs999rt1hPdCHDz+7KuuHq4l8yah1X472TmFMLQtA9+3b1+y222486V2YnZutiRCgs7UetCZfChCg87VesLZuAO3mYhbI7TPk9MAY6LAALbHSmIRfDDTg941Zj1RiqsUDrdsgBlrf58K1BmjtPUcMtIy7ac2fK151ef2w4d+yu0HCTgDQjIHO5hukDAD9+OOPm7POOsts3LjRfPazn83mQtCqXCtAgM718tH4JitAgG7yAsQYvm4ADVv8sm0EZeEIC9Dbt24xK16YZ7No6GwYOguHztyBkBAALy59SBHt9X1BHmjxdofNtuEV2qLjp2OsF5vUQYEyADRKxuJ6/vnn66Agu6QCxhCguQuoQHwFCNDxtWtWy7oCdL0mBW+2e5ivXmOx3+IrUAaAxgnv22+/3Vx00UXFX1DOsCkKEKCbIjsHLYgCBOj8LSQBOn9rRotTVqDoAP3JJ58YpGbDIUKANC8qUA8FCND1UJV9lkUBAnT+VjqXAJ0/mWlxlhUoOkC/8sor5phjjmGRlCxvwgLYRoAuwCJyCk1TgADdNOljD0yAji0dGxZFgaID9AMPPGCT83/00UdFWTLOI4MKEKAzuCg0KTcKEKBzs1QVQwnQ+VszWpyyAkUH6Hnz5plhw4aZ7du3p6wcu6MC/6MAAZq7gQrEV4AAHV+7ZrUkQDdLeY6bGQUI0JlZChqSYwUI0DlePJredAUI0E1fgsgGEKAjS8YGRVOAAF20FeV8mqEAAboZqnPMoihAgM7fStYNoP0qEUKiWmno3DLeYWXV1Qbbd9wnbLNI9+nS3Gg48sG5gRUII3VujC3qIqXOX5x+p2e6PslpPXjMVYFj6yIwUe0o0/0E6DKtNudaLwUI0PVSlv2WQQECdP5WuSkAXUumuABdq9+kv9cVCwHoYUE2yrgaoN1y5NJP2HEJ0OGUJ0CH04l3UYEgBQjQ3B9UIL4CBOj42jWrZd0But2eHcyLv/gX0+vYVlsBEOCpPdD4WSr7HX/JNWbAyMvNnNsnmEUzflZVIVDfJ5UHpVw4xNtll13M8RdfbV56+G4zdOIUO454i1Fp8OizvmPWLVtshlxxq9GeXakWePjws603V1cy1Db7Qav2tMMOsR0/9zvjQjve5rXvGJQRb9fhs3ZerudaKjPCzl4DW8yHW7f42on26HfzmreNeKC1V1yqKm7btMFMH91qx4KuPb78FfP6rF/afgHmGq6h7YblS82S2TMqVR299EZfuoqk1qdZGziNcQnQaajIPsquAAG67DuA80+iAAE6iXrNaVtXgAbAIcRhvz5HWbDs0LW7hT4B6E7dD6pAHaY//94bzZEjzjd77N3ZzJ48zhx30STTuccXLOy9MeuRqhLcJ0+catp36mKemHCewc8CvwBVAPQHG9vMM7eNNyddeYfp2O0AOz6uIIDu3PNQW+5bwBR2blm/xrZZt3SxtVu+BHgtF36PC+01cIudA0aNNSjlrfsFXMscRCcvO11bRFvcq+3SNmhIDipRrvsWuJYwEm0f9HHXBePnvTw5Abo5Hz4ctVgKEKCLtZ6cTWMVIEA3Vu80RqsrQGuwcz2eKMWtAVqHK7ghHG7MtEBinyGnVyAZoK1joJcvnFOJJUbfGiD9PNAujOr+2la+WeXBrSW+9mwDoAXmYae2BWCuPcNedvZuOcV+ARAvues117ZonaMAtIC/9H1gv0EVMBb9Pz9oSBVA19IgL78nQOdlpWhnlhUgQGd5dWhb1hUgQGd9hXa2LxWAFuiS8ASEWLhw7AXQ8Fzq8AMJzdAALd5jDXTSFwBaPM4I2XABetPqldYbjCssQEvYg0ilQyJqeaB1+Ie0hwceAK3t1LYsmzezJugDXLVnXAO0eK1Fe4yLkA3MOwpA4wsN1sNdS5mH9KnnKCEqfrHaeXk7EKDzslK0M8sKEKCzvDq0LesKEKCzvkJ1AmivadcKGRBgk7YaCt1QgSAPdBBASxhCkAdah1rAFu0N1vPyi4EGUL725M/NsRdcYZ6ddq0R0Hc90H4AndQDvWnNn6sAPKwHWod6aH2DvNvuOhflkCIBOn8fXLQ4ewoQoLO3JrQoPwoQoPOzVmJpKh7ouACNduIlBrjFiYH2A2jEQAfFFuvYZokndmOg3awbflk4Dhv+LSNhFgLQctiulgf6o79tq3iXg2KgdXYOQLfYrAFa+kI8uJcH+unJY81ptz5kY8zh0Zb73C8oeizpE3Ps1rd/lScd9+FiDHS23/isRJjt9SmKdQTooqwk59EMBQjQzVA92ZhNBWiBTh36ocMIVv/+JQt8iBv2y8LhB9AI6dAZIxCCINAsULji+blmwKjv26wXXlk4JHwD48vl5oGWsBP83h0Pr8HT7oKn653X7YZdPc1sXLXcZhTxitWWLBzIbvLFE75uBPoxF2TF6H/mGLN84TOVg48AbQm/EA1xX6+BrWb7tq1Vhzo1CLvZUSQURs+fIRzJ3nyNak2AbpTS5R6HAF3u9efskyk0olIeAAAgAElEQVRAgE6mXzNa1w2gmzGZoDGDCrtkzVba01gFGMLRWL05WjEVIEAXc105q8YoQIBujM5pjkKATlNN9pVLBQjQuVw2Gp0xBQjQGVsQmpMrBQjQuVoua2xpADp/S0OLG6UAAbpRSnOcIitAgC7y6nJu9VaAAF1vhdPvnwCdvqbsMWcKEKBztmA0N5MKEKAzuSw0KicKEKBzslDKTAJ0/taMFqesAAE6ZUHZXSkVIECXctk56ZQUIECnJGQDuyFAN1BsDpVNBQjQ2VwXWpUvBQjQ+VovWpstBQjQ2VqPMNYQoMOoxHsKrQAButDLy8k1SAECdIOE5jCFVIAAnb9lJUDnb81occoKEKBTFpTdlVIBAnQpl52TTkkBAnRKQjawm8gA3XH/Hg00j0NRgQYp8O7b5uWFCxo0WGOHYSGVxupd1tEI0GVdec47DQUI0Gmo2Ng+IgH0ihUrGmsdR6MCDVRg1KhRDRytcUMRoBundZlHIkCXefU596QKEKCTKtj49qEBuvGmcUQqQAXSUIAAnYaK7KOWAgToWgrx91TAXwECdP52BwE6f2tGi6lAJAUI0JHk4s0xFSBAxxSOzaiAMYYAnb9tQIDO35rRYioQSQECdCS5eHNMBQjQMYVjMypAgM7lHiBA53LZaDQVCK8AATq8VrwzvgIE6PjasSUVoAc6f3uAAJ2/NaPFVCCSAgToSHLx5pgKEKBjCsdmVIAe6FzuAQJ0LpeNRlOB8AoQoMNrxTvjK0CAjq8dW1IBeqDztwcI0PlbM1pMBSIpQICOJBdvjqkAATqmcGxGBeiBzuUeIEDnctloNBUIrwABOrxWvDO+AgTo+NqxJRWgBzp/e4AAnb81o8VUIJICBOhIcvHmmAoQoGMKx2ZUgB7oXO4BAnQul41GU4HwChCgw2vFO+MrQICOrx1bUgF6oPO3BwjQ+VszWkwFIilAgI4kF2+OqQABOqZwbEYF6IHO5R4gQOdy2Wg0FQivAAE6vFa8M74CBOj42rElFaAHOn97gACdvzWjxVQgkgIE6Ehy8eaYChCgYwrHZlSAHuhc7gECdC6XjUZTgfAKEKDDa8U74ytAgI6vHVtSAXqg87cHCND5WzNaTAUiKUCAjiTXTjc/+OCDyTooSeuZM2ca7LU777yzJDNONs2DDjrItLS0JOuErQujAAE6f0tJgM7fmtFiKhBJAQJ0JLl2unnQiS1m+977J+ukBK3fb3vXznKvzvuWYLbJpvj+unfMXTdMIkAnk7FQrQnQ+VtOAnT+1owWU4FIChCgI8nlCdA9zh5vehxzQrKO2JoK/F2BX1/ydQI0d0OVAgTo/G0IAnT+1owWU4FIChCgI8lFgE4mF1uHUIAAHUKkkt1CgM7fghOg87dmtJgKRFKAAB1JrkID9Bv//q9m5qQLdprj8ZdcYwaPucq+/tLD08znB59sOvf4QiTh0PeLv5hqTrv1IdOx2wFmzu0TbPshV9xqdm3XPlJf+ua49sQesAENCdANEDlnQxCgc7ZgxhgCdP7WjBZTgUgKEKAjyVV4gBbI9QJkDcFJADpqW78VSmJPslWvb2sCdH31zWPvBOj8rRoBOn9rRoupQCQFCNCR5CotQL+z+AUzfXRrZf4jH5xr/vTybw1eP/XmB81uu7ffyav8u5/eYubfc4Pp+sXDTa+BLWbFC/M8PdAf/W2beeoHo82K5+fa/sXj/fGH2yp9ttuzg3nxF/9ieh3basdrW/nmTvYccNTAZIuZkdYE6IwsRIbM6NWrlzn//PPND3/4wwxZRVOCFCBAc39QgYIrQIBOtsDIwlGUQ4S1PLru7wHIfgC9buliC7in3PSA6d1yigXh1b9/yROgX5x+p+m0f09z2Ne+aSSMBIC+X5+jqtphpZ6YcJ4ZMGps5d4gj3mylW1e66wC9IIFC8w3zzm3ecJwZCqQEwX2P/AghnDkZK1oJhWIrQABOrZ0tmHRANorBhowC+9uFIAGFAtct++4T1VbrxjobZvfq/JCa4DevOZt63XGBU81bEFMdi3gT7ayzWudZYC+cNxEc9KP7m+eOByZCmRcgb+ue8csvf96AnTG14nmUYHEChCgk0lYNICOEgMd5IEOC9AnXna9eXbatWbRjJ8ZQDMueK41QOM1HDaUUA8CdLI9G7c1PNAA6DN/+kzcLtiOChRegVWLnidAF36VOUEqYIytDjds2DCzfft26hFDAQK0dww0AHrZ3CdtyAYODfpl4Tj6zDFm5jVjKmEZEmtNgM5eIZU8ALTEzctTCzz9wCVPODp2P9g380vbn/5QFSKkvyBKP/IREeXpB/b0pjV/tmFH9bjcpzd6jH5nXBgr003Q3IPmoM8tJM2wUw+tGtEnAboRKnMMKpABBQjQyRahzACtIQIqIj55/yOOsX+ww8ZADx4zwcy6/hIbljFg5OU25lm80RIDTQ90sj2aVus8ADTmquPo5WCpfDFDTL4fyLoAHaRbWICO0mca6+Q19zj9xgXoOGMVrQ0BumgryvlQAR8FCNDJtkbRANorBlq8WJvXvmMhef1br9vDgZ8fNKQSt9x36JlWyHYdPlvxeMkf81pZOJbNm1nJP91zYIvZ2rbeeqTl8KEfQAuciD318vAl2yHRW2c9BjrrIRyyL3q3jqjkL9fAu8fenT2zvtTyQPtllZEnLPLewX7Hkxe/cXS+de0hDnMoFxlqkNlG52bXO8wLoL3OF8gXC/0eQj9y3kFsgcceX2hlTpirtDniG+eYFS/MtdlzvDLn4Is0LvlSjAw66E+eDnywsa3K46+fPsG+ILujv6sa14IA3TitORIVaKoCBOhk8hcJoJMpwdZpKUCATqakG8bhplj0y/rSvlMX3xAOSZvolVUG1i748U1m6MQp1nAcdJVQEfnSKZljNCR27nlo1aHYsAAtRY28VHIB2g2pwJdVOecggH/Y8G9Zr7we/5Vf3WdBHUDt2ikALU+bdJ/uAWGv8WA3DgUHAbT79En3k1Ye+WS7zL81AbpeyrJfKpAxBQjQyRaEAJ1MP7beWQECdPJdoUHSBWP07uXdDAJoAKVfVhkBOi/PsgvQbmgE/r9l/Rr71EYfvHWhX0KixEPsp5AL0K5XXf5/8sSptounJ4+tnFPQfcIuOcPgQrHMSTz8fucW5IAw+pV4aD3/IIB210LbnfV87wTo5O9f9kAFcqEAATrZMhGgk+nH1gToeuwBDY7o3y0j75X1JS5Ab9u0wWaOQTjGCZdeZ5676zo7JUCjBmgJScLY+pLiQBrS0wJotwCSjAtPutbF9eoGecODvOracyznG/TBTQD+G7MeqemBhm26cJO2O+uhWgToeryj2ScVyKACBOhki0KATqYfWxOg67EHJHThwy1/td1LbH4Q/NUCaL+sMkvnPO5bUKiWB9r1+tYqTJTUA63Hc2OOw9oSFqDT9EDXY4/Uq08CdL2UZb9UIGMKEKCTLcjh/Y82ex1xvOnSq3eyjtiaCvxdgVem/4t56Cd3mZaWlkxpkpcsHCKaDqmQ7BsSuuGV9SVuDPTaJa9WPNzaG+16oOE5DYqBDpPVJipAh4mB9sqrHuVLQVDqSR27jHXBIeS9unzOszCSHNL0SmHJGOhMfRTQGCpABaAAATrZPgBAf9C+s9mry37JOmJrKvB3Bd5+ca55/JGHCNAJd4SEcaAbyUeOnzVY66wv3fr2D8wD7ZdVRmfbQLaKPTt3NbvssouFRAnFQNiGZNzQWWd0Fg4dl+1mtYkbA435JsnCoeeAvmp9KXAP/6GNXxYOqVAq2Uskw4h8SWAWjoRvADanAlSgvgoQoJPpyxCOZPqx9c4K8BAhd0VRFShDfmmGcBR193JeVMBRgACdbEsQoJPpx9YEaO6B8ihAgC7PWnOmVKDwChCgky0xATqZfmxNgOYeoAJFUoAe6CKtZsHmgoMsj/7qsYLNqnnTeWf1ajNr5lPmuxdf0jwjmjzy3dP+X2wLCNCxpWNDHwUYwsGtQQXyqwABOr9rV3jL5SR4z6+eVvi5NmKCH2zcYF6dcX+l5G0jxszSGO/97knz8sIFsU0iQMeWjg0J0NwDVKBwChCgC7ekxZlQ3lIpZV35jatWmEf/z6nm4pmvZ93U1O2TD7pGA7Skljqw3yBbQpcXFdAKZNkDffLXv2F227MjF4wKUAEfBT7e/qHZf799zS47duzYQZWoQJYUaCRASxqk9W9Vw6VOPZQlbeLY8u7yJWb+PTeYPfbZt1JuVfcT59BHGN10zlNdClcqhrmVseLMrVabZgE08qb+6eXfVnn9kbJp9uRx5riLJpmguUPbBT++yQydOMUgDZS7Vp3272mk4tnhw882WS97K/aHnX+tNS3C77MM0KMuHWe+dstDRZCZc6ACdVFg7X+9Yv746J0E6Lqoy04TKdAMgB4wamzFU6hLxBbBe+gm2t+1XfudoEyqY7nA5reQXhq5r5UZoL10CwuQYQA6j/sy7PwTfXjkpHGWAfrCcRPNmT99JidK0kwq0HgFGMLReM05YkgFmg3QupLV4DFXGQFQJMrHJRWv8LPriZUE8VK5SRLH4178jP7kkqpM+L/2eItHuNfAVjP3jqsMEvfrIgF+7dyk9DKeW/J2yezHqvp0PdC6CIGfJ94LoF3dygrQ7n7RVbewh2Q9dXEGvT8EoLsfdvRO64+18vJA6z2h95nf63rf9jq21RaEwJcn3P+Z9nuaFS/MNSuen2v3LMZDIYSgfSjvCZl7h67d7VMPmdeAkZdXii24/YT8WCjUbQToQi0nJ1MyBQjQJVvwPE232QDtwqEGzLaVb5rpo1uNVynSF6ffacu4AkbkPoEZgVIBbN0n1uapH4y2j+IB2Lrcaeeeh1b9TpdU9SpLC9iBd1KPJ5WjVv/+JQviAm4dux9sQzq87Iad7th6D9ED7f+OwvrhwlpivZ6ePLaiu4RwdOx2gAVKiZGGns/cNt6cdOUdti3K4fZuHWH7wFquWrSwslYuQOP+12f90v4e1/x7bzRHjjjfoOSw1+uy/ugbew72blm/Zqe98MHGtio79Ly0TZvXvmPvO3niVONWKUN1Na/5NyJ8J8ufeQToLK8ObaMCwQoQoLlDMqtAMwDajYEWj5rrVZX/Hzb8W5U4VF3CVcIjNOgCUnQ/R5/1nSooxkJob+3SOY+bZXOftNAloIV7AEhS7hX/FxjXC+lVGtWFGtjojifg/8qv7qt8CRCPpMCVDv3wi4HW3nntydY2NtID2egYaNFf4FQ8sohVxhcSvxhoHd4ArQSmAZr6d9gbQQCt1whrKgDtvg4YFq+zDhnB+gv8uyEXWM9Nq1ca8SbrA5KuZ1x+p/sAuIeJAc/sB1OKhhGgUxSTXVGBBitAgG6w4BwuvALNAGjEQMvBLACxwKkfKIpnWUBZZichDwK60o8G6D5DTrceOx137Qe0u+3e3noqBaDxL/4v4SQC0gLJYjte9/OU+wH08Gvvtd5I3Tf60Y/4ZZ7aA+2lm/uloKiHCPX6Q6ehV00xs28ZZ8Mf9IUvFp8fNKQKIN29I18s0E4fIqwF0PiCpr+s+H2JkdfdcTGejC2AjqcYtQDa3Sd4Twhcy+FGArT35x4BOvzfA96ZDwX0E6p8WBzfSgJ0fO3Yss4KNAugAQ0Chnt1+Zz10OHS4RV+U9eeX4BKp+4HVQA2jgdaPMIuQGtPokATwO34i682/37DZRUo1x7wJB5ov/m6IRyubvBelzEGOuignAuT2FfiqQ7yQOvwDi8PtM7CoT3efq9jTb0803hdPMlhANorA4g7PgG62ACtn3IgFExCyLxmHfUQqftFT38xTONPEPqXJzEIufN6T4RNRxl08DcNW736kM9chE4lycSj3/NxbYUtrz35c/t3yD2kHrfPLLcjQGd5dUpuWzMBWiACB6DkA9svBjooPhn9wAMsHull82bag1hhY6D9ABr9SBo4Hd4xeMwEM+v6S+wHqT6w5R5g07HNacdAS+y26FZGgJb9g38Bx/qPnA7hcOOQtVZoq59Q1IqB3rTmzza0Qg68Sgz02iWver7uNfYbsx6xXxgRwiEQ5OeBduOyP/rbNvslU4c10QMd/CFeFA+0X5hQUoDWZwfw9CosyEb506kB2i/7UNhxmwHQ4vGVz5ooc+e9yRQgQCfTj63rqECzAVq8ye9v+EtVHHKYLBxuaMewq6dZKEGMtetBCcqcEOSB1u10PLF+jN9zYIvZ2rbeeqQlxOLDLX+1q4YsHG7mBZ3GLmkWDtENAOfmfPaC6jpuJdPoGGjMxS9ri7wuhzmhD75U4cI+WbdssQF44nAoQjgkC4e7Vm4MtA7fQV9uRoxa+1bvoTAeaMkk47V/gzzQ8oVP5l/mg4RFBGjtgXb3hl8WFn2fu2/dIkQupOrPKXcPb9+6xax4YZ793NWZhHRIHj6r9aFv7YEWu/oOPdO+Pw85fpg9nO16xbVDAmFb8jTwpYfvruRx118yENq34L7J9rN5/yOO2elci5+t7rkR/I167q7rzP869zIz/96bqnLL6znqdn6vu+95fBnGXGAL/mYgbz0OJP/noz+p/P0Ik5HH67NQHEhBma3q+fcgrb4J0GkpyX5SV6CRAJ268X/v0D1EWK9x2G+wAs0AaK4JFailQJEBGuFrftlf9CFSv0wu+AKpD9F6ael6j3X8rX5iKJlkEOYgTwzxpAQw7D5ZFJvxlE+eyEh7OCK69e1fZZdrv5xbQBt9hsEFaMlKgy+QOjxLvmAiBaR7lsAtzKT/DztwYU7uF1i5L6g/DdBuph1xgACg3TM1sNN9GqUz8kiGH9jmZiTST8fky8AJl163U+GoWu+jZv2eAN0s5TluTQUI0DUl4g0hFSBAhxSKtzVUgbIAtI6H1SFBbhpHiC8gB1D1q8Tpt0iSIUbSgAq0aaCUJztS4VN7tHUMtBvL7RcjrMEY4BgWoHUGHA3h0Er6PPGy682z0661T6S84pvRR48vf8X+TscfY944ZO628zsboXV3Dznr9QJAu3bXysiD/vQ5D22DDjtr6BsvpcEI0CkJyW7SV6AIAJ2+KuwxjgIE6DiqsU29FcgjQHs9dtfeZg2eXllhvADaK5MLshTV8kC7tmC9JHxOA6+GNoFFr/SNAtACrl4pGsVrLQWC0J+EXEQBaB0q4pXqU0K20L+EU+gwLjdVKe7TIRX6937tvMLCXA+7C9Cu3RqgvdZR0rV6ZSRytfRKyVrv92CS/gnQSdRj27oqQICuq7yl6pwAXarlzs1k8wjQXuLWysLhlwddPNBBmVzcGGj9qH/5wjmV4kKSllMO0voBdFIPNL4saC9sWA+09jIjBtoLRHWF2lo6I8RECiuJh1974HX7oFzwYod88anlgQ4CaK91DJt1Jex9WXpzE6CztBq0pUoBAjQ3RFoKEKDTUpL9pKlAkQEaOnllhXEL6Wiw1Jlc5LCejhXWJeL9ssDoSq6SSUYDvBy2FTD3i4EG5Aoo6xhoDdBuelHXAx1UmVODqI6BRkw0xkXhKmRVmjdlUuVwoBvL7H65kJhw5KH/7d037NQO3mAdf65jqMPGQPuBf9A66phqnZHoTy//tirbDw5EMgY6zU8Y9lVaBQDQp5zxTXNIy4jSasCJp6PA+++uNZ+s/aN5843XY3c46MQW0+Ps8abHMSfE7oMNqYBWoMgArQsrYc5udg2dhcUvExHauRkvJEQDv3PDFPqfOcYsX/hMVbl7r0N1OhNF6/hbTNvbf7Dg5uaBFrsQ6tBrYKvZY5+uVYW2EDKBnMdLnp5hs23gQrgFLoSIwEOODDu4D/CKDDtSSdbNN+0WY5IQE6/XAfRe4S26Qq7UIIAtOlTDbxy/LBzQZ80br1SycAR5zv3W0S/bhlfF3CS5rBv96UIPdKMV53ihFQBAn37u+abfP18Sug1vpAJeCmx8Z6XZ/NpvCdDcHplSoCgAnSlRaUyqCoTJk53qgDnqjACdo8Uqm6kM4SjbitdvvlkO4eAfqPqte9Z7JkBnfYXKZ5/rLXZzPZdPEf8ZE6C5GzKrAAE6s0uTO8MI0LlbslIYTIAuxTJzkgVVgABd0IUtwrQI0EVYxWzMoRkA7cb36dhNv0poqFa5YflSs2T2jKoS8pIyS1exjBIziRLFrmcpbymjsrGT0rWCAJ2unuyNCjRSAQJ0I9XmWJEUIEBHkos3ByjQaIAWWJVT8vqUPbIQ4KCRVyU0ADRO3+OgkaTlklRVuroXqqm51dwwfTcFla5Opk/CA751dgNunuYoQIBuju4clQqkoQABOg0V2UddFCBA10XWUnbaaIB2RdY5TvE7XWFNV0IDQONCii4XwvG6nJR3QVnG88ulKt5w9ItT7kEVyUq5QZo06SwD9Mlf/4bZbc+OTVKGw1KB7Cvw8fYPzf777Wt22bFjx47sm0sLy6RAVICulcxfaxc1abt+5I5+9ON4/F//fsTkB83zD04x69963aT1mFwXDwBkSfnWMu2HJHOtN0B7hVMgJdb00a0Vs+UwjlsO1wVoN3etV3UvgLDec1IJDV5rr9clv65fNbAk2rJtfAWyDNCjLh1nvnbLQ/Enx5ZUoOAKrP2vV8wfH72TAF3wdc7l9JIAtFRm8pt4FID2etwtie7lUbtOSK9/Tkt4jCfQrGEasa28aitQb4B2LXA9vlE80F7FH2rlRvWrQCavuwUUaivGOxqhQJYB+sJxE82ZP32mETJwDCqQSwUYwpHLZSuH0UkAWsqSIom+m9x9wMjLzZzbJxh49nSKHn2fm/TfLVGqH4FjNcTT+MUTv27eevY3doHgFex70v+23uitbevN/kccU0miL/f7eQ61XfAovvbkz23Cfl2yFWNgfrxqK9BsgAbIvviLqea0Wx8yUr7YqxIani4IQGNWftW9uvXtXxUGIrHOfq/L+wB9au/1yROn2pAOXs1RgADdHN05KhVIQwECdBoqso+6KJAGQKMak1ROgpHz773RHDnifBNUTlYf1mrfqUsVqOiJuoeyZByUgNU/68Na+jCZgFSHrt2NQL2AuvZi64NgMr4XVNdlEQrSaaMBWuAXVchwDbt6mq1CJuvrVwnNBWi09avuhX0h/esvYn6v+1UDK8gS53IaBOhky6bDn9wqgrpn/Z7QryPEDpdbFdC1Slfpi2qxO3ZaYX1ih/6SrR1H2s6wuea9nmTJ00/0h9Lb+ALO61MFCNDcCZlVIG2A1mEd+pG66xEUaIEn0PXouR/Km1avtB8oOv7aBWh8AElZVv1hB3uk3YmXXW+enXZtBbBcUHdjnhnGEW3bNgOgo1nIu8uoAAE62aprgA4KZ3M/d6OOGhegMe4bsx6pfP67oV1R7fC6P8zc4gK0G46oQwnTsD3vfRCg876CBbY/CKC9vGna26y/iWsPgIRmeAG012GtPkNO9/VA62/rQQCtvRtenpBex7baD1hcSG+Gg17y2m67t7fhJm4ICQE62sYnQEfTi3c3RoG8A7TXkzB8Fi64b3KosDUA2Wfa72lWvDDXfu7hcDYcF3iy4obXufdJKJJktNEeaHz+63zqn3oLF1bSQ7reWb/PaPl74WWneGL10yT53AbM+8Gy/lsBOyScED/LkyQ8BcW82nX4rA01xKU913JoGRr1GthiPty6xc5N/93zyzUP2/TfIX24WUILsQ54KipPbDv3+IK1gU8+qz8XCNCN+ZzkKDEUSMMDrWOEddyyzqMrHmgXUmGyX7ov9/UoAC1e6yBJ3Iwi9EDH2ECqCQE6mX5sXR8FigrQYcLWAKAAU3zWwYHwwcY288SE80zv1hH2qZ4OkcPPy+Y+ac8QSB513KND7FyA9sun7h4w9/vsRuYaybW+dM7jO9mJ8wP4OwKnh6SH1IfL8SRSP3302kF6jhq4MS9oMWDUWHvORferQwz363OUBXBcGqCR5tIv1zx00nZpG7RTyAuW8XfPher6vDPy0SsBOh/rVEor0wBoCCfAqt/8QTHQkvJLCl2EzcLhFwOtvRs6Bhrf6uWDcfCYCWbelEnmuIsmGbzOGOh0tzwBOl092Vs6CuQVoGvFFIcJWxPgg5IAUDczkoY5DXm4X36nnxC6AC39yv1yXkBWTrzLYdKf6vHdA+R6rmFjsr12j+4XAP3MbePNSVfeUfl74PX3RYcBaoB2Qw+DQl20zu5TVa+YZ4Zx/M/qEaDT+RxkL3VQIA2A7t1yStUjMje7xurfv2S9GgKzUjI5KM8zpur+PqwHGm2jlmBmFo7km4sAnVxD9pC+AnkFaFHCL4QjbNiaPjRbC6Dd7DRwjAQBtF82Gz8PtJxDkew4erV1DLRfBia53y/fu9fucesL4B6EariH1/Xfl2XzZlaFo3h9AUA4ox/YS1igDlmUv2d+MO1qwToEnypCgE7/M5E9pqRAVIBOadhMdsM80MmWhQCdTD+2ro8CZQFov7A1Daa1AFp7lMUjnCZAuzHEYQHaL4OHXwy0fOk49oIr7MFxAXbXA62rlfo5aOJ4oJcvnFMF4PRAx39vE6Dja8eWdVaAAP0/ArMSYbLNRoBOph9b10eBvAO0lyoa9qQypg5H0PG8+tBbLYCWWGmMKXHHQTHQUT3QAGjt3ZVQPoSXIJTBq8CRGwPtZt3wy8KB8EB5OioALU8ma3mgtV1+MdBu3zrWXAO09IVc8JgnY6Cjvc8J0NH04t0NVIAA3UCxCz5UlgA6bOqtNJfEL2bV69Ft2HHFY+b1yDtsH2W/rwwAjTX2C1uL4oHevnWLWfHCPLP+rdeNhOL5xRy7+ZCDUr25wK/zrussHH4VQnUYhs4cInvbfe9Jn64ueC/i8kqf6tqo9USO+Y2rlttCW35ZOFrH32La3v6DOeHS6+wYOttT/zPHmOULn6kq8sUsHOE+mQjQ4XTiXU1QgADdBNELOmSWALoZEtfKFetVQKGWnQToWgrV/n0RAbr2rKPfETcPc/SR2EIrwDzQwfuBAM33S2YVIEBndmlyZ1ijAVrgElUm3dZkG0kAAB47SURBVIOp4jU75tz/Y156+G4zdOIUI3ljJW2We6hVe60kthJ5c3GJF9n1bAcdPHL/SOr8r27ucz8PXd+hZ9puDjl+mE215eZmT7viWu42XQiDCdAhRPp7NU4dkhGuFe9KQwFWIvRXkQCdxg5jH3VRgABdF1lL2WmzABpiI7YSOWElNy5ewwGhlnE325Pyuny7HEjSsZheeV8lbEKnRZR+BcjDAjTaubGPfgeYYJdUVpO8vTpXLfqSypw6F3ApN12ISROgQ4jEW6hARhUgQGd0YWiWMQRo7oK0FGgWQAvo6gNSGnSRxkugUx5TuweA8Hu/R9h+/cKj7QK0mwcX/YqXOCxAu7GlYpcUbpCCEn4FiNJaz6L0Q4AuykpyHmVUgABdxlXPyZyzBNCAEcmrqRP265yiYWNCG3mIzOvwmNdBlzS2hD7Ygv502AH+r8vPDhw93jw18fyqcr1hbdBpoJ5/4HZz5IjzbR7voKveAO0ekhp+7b1V3mU/0JW9NPjbE8y8qZ8W0pHKmF6l5cW7KyEXmLOsZ7090F55cl2AlrASWQt3D4Rd47LcR4Auy0pznkVUgABdxFUtyJyyCtDw7nldWQXoVYsW2jACgX03pjWN7eKma9IxwIA+XLgHF+Jl9c9RxndLyXoVcvDqr94A7Y7pemD9ABrtEPfc9+Qz7BcMnKTHhfK8XqXl3dyyQR5ofXDQLb7g2hvkgdb9BHmgdfx2lDUt870E6DKvPueedwUI0HlfwQLbHwegdUqhfmdcWAFH7YnVHlh40HR6JN1G94WDWpKH1PVAS9oj91CV65HF43LJGwpPXa9jWy0w6YNkbsL8BfdNNlvb1pv9jzimKs0Qlt3PVj0/r+wLrgfcK21TEABu27TBaLvcMuSyJTXcrV3yqpEQgt6tI8yyuU/a2yR104blS82S2TMqXmsvm3C/eyocr4UpLZtVgMaXMZmr9tbqddOl5d1QCdz34i+m2mqauJ6YcJ45eeJU4+aHjQrQfv0glluexATFQMt7B7YgxywvbwUI0NwZVCC/ChCg87t2hbc8KkC7ifjl8bJb1lSqWMEzqhPMCxDgj76ALhLew2Oq79MA7Xeoqlvf/kYXD9BAhENhckgLYwZVnNIHsfSBMXnMjywPA0ZeXuWx1JDpBdCuZ9I9FKYBTLygWlsAtLbLz6PteuT9Kl7pwgrwkrtaCcwBxLxg2Quq3TdHlgEa9nsduNNfInTpeP1lEDlg1y1bXPFWy+/wJeros75jfycFIrxioOVLGMAYYSE6LzTud/vB+ohd+ALYa2Cr2WOfrp5ZOBi+UfsjukwAXY8nX/KlWg7fuk9Iaq9A7TvcMDg5N+BXadDrKdFzd11nczDjzAPLYNfWPC93EKDzslIltDMqQIf9gNYgp2E6qJRq2IT9foe9tG1RAFq8ffBUujAsfUpsqtcjf68YaIDPqTc/aFOnufaKHi6UuwCt7QrSXfcfBNDY3vhC4xUGow/Xzb/3xp1insOEcTQaoEv4duWUYyhQJoCOIU+oJmE/90N15tzkV0lQDsvqvx/SVJ+Xkc9YgWZdUdYvFDCOnWzTHAUI0M3RnaOGUCAIoN2cs/B24XLjffGaey9eE0+bBjwN0LhHQ6IXQAcdqhKvteQARn/i7YsC0OJZEc+s60UUGEb/urqUAHJQAQ0vWBXIrQXQ2q40ANqt8uV1gA4eVa84WwJ0iDcTb8mkAnkHaPe955V9RT8JlM8NSc2IqoJuSJ1fxT+vkDg8ldKfP9oD7fcER4fmaWcC+nFD02Zdf4n9Yq/DkNwwO/13Qv5uiEPA67Mp7vmPTG7gkhtFgC75Bsjy9NPyQLsQ6XqgvT6w23fqUhVaEdUD7YaNhPVAa1vxWN0F6E2rV9oP9KArSv7fsB5oHT6CEA5tlxs6I7a5rwd5oP3+aOp5ugcI5XcE6Cy/i2lbkAJFA2jMVb/P3SdX+Nxwn5jpECw/hwY+j/1C4vTnpAA0Pn/lMwo2yZOrPfbubB0N2oO8Zf2anXK1I6uP60n2WsegQ73owwuWw3xe8V2TDwUI0PlYp1JaGRWgNeRJJTcIBzgTz7QcyIJHQWKgveBNDmFJHl+/GGi/Q1UaoHfbvb2NUcaFeFTXAx10YEuDqtf88OHvHuKrFQOtN5N+RKljwGX+iLGGTvqwmgvQ8kdTYqnxaNIvC4d8AfD7EiN9ueulY9HdGMIsxkCX8g3LSUdWIK8A7RUahskjPli8sHgKps+LCOgGhZz5AbR7ENX1Arsx0BqgdapRF4pdx0jY0DS90Npm92mc15kNhnFEfptktgEBOrNLQ8OiAjQU04/5JGRCoFkyX/Q/c4xZvvAZC7P6kZ/7+FE/6msdf4tpe/sP9iCIXxYOfahKimEgFAGPKJFtY8nTM2zZZlzwguDCH5nlC+fYDBXugS3XA+3Oz338KLmB9etBIRyyw/SjTn3wy53/mjdesXmKvQDatQ3/dw+RhfFAe9mkD9DlJQsH371UIIwCeQVomZuXN1V7nZfOedw6MBDSpuHS/Uz2OpPhfh7rzymMrw/Aeh0i1JAvn0VuGAj6kRAS93MtjAdaPvcwPv424LCgOF38igkRoMO8M/JxDwE6H+tUSivjAHQphSrRpPOSB7pES8KpJlCgiAAtHug99+lqNq5aXjn063dWwi+GWYdHSJ8C2rU80AB2udyzLfqpnl461z6/LBvulwZ5MogzGuIkkQOC9EAneHPkoCkBOgeLVFYTCdBlXfngeWexEiFXigrEUSDvAO03Z/H06lz1AqhBIWc6paWkVnTDQtyQOK8YaNgl4WL6S7cbA61D2LwqzPpl4ZCQMoyjD6nrp2X4HWOg47wr8tOGAJ2ftSqdpQTo0i153SbcrDR24sWSEtducR+vrDFhwm7qJhQ7bqgCRQVo2fcaNF2vsVfImX6/DBj1ffPh1i02x7mcyfAKidPgKyF5OoQOC+oXmqYzgPh5yN14b6/85nKP5IiWTcQsHA19OzV8MAJ0wyXngGEVIECHVYr31VKgGQDtBRFukRidWUB7sySOsta8+Pt8K1BUgM73qqRrvQ7jYPxzuto2uzcCdLNXgOP7KkCA5uZIS4FmALSXJ1nHY7qZXjBXN9NKWvNnP9lUgACdzXVJ0yoNzaxEmKayze+LAN38NaAFPgoQoLk10lKg0QDtVaTGay5BOcrTmjv7ya4CBOjsrg0towK1FCBA11KIv2+aAgTopklfuIGbBdBe5dW1uDoPrRyOqtWmcItT4gkRoEu8+Jx67hUgQOd+CYs7AQJ0cde20TOrN0Dr/LLIwz382nttKfhascxB5eMbrRHHa7wCBOjGa84RqUBaChCg01KS/aSuAAE6dUlL22G9AdpLWL9sGm5uWPxfLik6UdqFKtnECdAlW3BOt1AKEKALtZzFmowA9PHj/2+xJsbZNFyB7du2mqX3X29eXrgg9tiDTmwxPc4eb3occ0KoPvyycOiS5+hIvNc6pVaoAXhT7hUgQOd+CTmBOikQthJknYYP1S0BOpRMvKkZCgCgv3vp95oxNMcsoAJ77rVXQwEaErp5oHWZdZFY7unY/WBbXn7Xdu0LqD6n5KVA2QAaT1u8nrLo8t+de3wh1mbxy+MsnemCJ3jN670Ya+C/N9IHhyUPtdd5hrB53v20SmJjUFuxv0PX7mbwmKtiD1NrHcJ07FacDdMm6J44xbfCjEmADqMS76ECVKD0CkT1QJdeMApQUwEC9KcSpQHQUeEwbQ9n3Mw7fnY3GqAFfGHPCZdeZ6Qcec1NnPEbXBj3Km4TdwoE6LjKsR0VoAKlUoAAXarlbshk8w7QfjCiD9Xq6puAws+039OseGGuQXVOlL4eMPJyM+f2CUaqDJ5260MGXmjcO/+eG+w6SPU/yVrTrsNn7f24pPqf9nyiIuGG5UvNktkzbNtO3Q+y/Z1684NVYKghVdvs9vufj/7EjrVk9mPGDbUSO/sOPdPec8jxw4zrgdZhWr0GttgKi3jahEvmjp9Fq2XzZpqZky6ozB1lycVz75VL/sMtm+1coYWu2qjn4Xrg3YqKcjbjTy//tuopgV87v9f1Ouj5iT5f+ufvVmyEt1vWWJdB99s/6M9rX+B19yC3rDVex5y0V909hxL3zU6Ajqsc21EBKlAqBQjQpVruhky2iAANyH1iwnnm5IlTq0AJAANwWTb3SQNI3mPvzuapH4y2YNO556Fm9uRx5riLJll4dit2Sn/tO3WxfQ8YNdYc9rVv2v62rF9jYXTd0sXm9Vm/tD8DoOV1hETJQV2/0AS3gJEeH/2i7LiGUwlzwH1ypuGDjW0V2zRAi81aD2wusRM/wy4J5cLPBxw10Nos0Kx/9gJoHXah5wp4fHryWKv32iWvGoC4jPXcXddVPM262Avm8dqTPzfHX3y1DSfDHL3aLV84x/N1XVodXwRWLVpYWR9XR9EBGoudeE0qtHbsdoD9gqH1lv42r32nss+89g/6kT3S48tfsZrK5QXVcd7wBOg4qrENFaACpVOAAF26Ja/7hPMK0IAq8ZBqkQCZuARkAWA6VAKV+AQY8a/A2dFnfacC0AJNOgWkAGS3vv0rcAXQ1t5OF6D1OFHDIdx+tfdaA6Xbr/xfA7SXHlof0U+DcVSAFq1cCNd9blrz5wrwuhtbA6Ub8qDnq9v5vS7anXjZ9ebZadcaiQMPqsKqQ3gA+gLJsn+gl/TntS8+P2hI1Rcwren8e280R444334xkyutMA4CdN0/IjkAFaACRVCAAF2EVczWHPIK0EEg4h6S08WCAND6EGEQQEuIhoyFR/x9hpxuFvz4JjN04hQbihEE0HqcWh5ojKFDA/B/CafQYK49shJ64gV0GqABrl5ACA+0eFHXv/V6ZWNKSEoUD7RAqntoWTqVcA09RxnHa+54TYd4hGnnhtIMHjPBzLr+EuvxxhcCL4DWdssTCAC0++VM59b32hcYQ558QEtZu4/+ts0TrAnQ2focpDVUgAoUXAECdMEXuAnTKyJAu1kYgjzQArZeHmivDBYaxqMAtN+BQQA8LjdG2g/M3ZCGJB5o16Ma1gOtvcwS7+wFokHZTLTHF/OXkAlp4+osbw2/w5769W2bNtgnEGE80H4ALSEj+i3p6hP0dpUvZviSQw90Ez7YOCQVoAJUQCtAgOZ+SFuBvAO0lx61YqABpzjghStMDDS8iLjvsOHfMgjhiOOB9krRpuODAX0SprHb7u1t3C0uN7baBWgN5n4x0IjPlXkK8KJvF6DlEJyfB1rHeruxxPrLhva267XQhwN1zDNimbWHHLZpSPdrp58m6P6ixEB7AbQL9DrOXcdUB+0L+WLEGOi0P7HYHxWgAlQghgJRADqst8Q9oKMPUoU10e+xrc5+ELavvN7nxn76zUN71gA8GsaaMfciAjR0DJuFQ8IE5P2y+vcv2QNvbhYOydAQ1wMNm9ysETqbhv4dXscBuiVPz7ChIhoIXYBGvxLegDCDXgNbzR77dPXNwoH7h109zWxctdyOIQcU8TrmiEtCTyTOHBohxhcQjswlA0Z932bxAHy6HmiveYrG7ueEPhSpw1DkfSDgKqEYGBuXAL5XfwjV8MvCEWS369n2y6ih9RbN5GCojsvXn33MwtGMTzaOSQWoABVQCmQdoCXWUP8R9frDWMRFjQPQWchzW1SALuIe45ySKeBmOknWW/jWzAMdXiveSQWoABWoiwJJAFofcJEKaPBs4VEsrsHfmWi2vre+kgv3Gzfcb1597D4TJr+rHzy6p+T98qe6Xh3xMLkeO3ldvIDdDzvazL3jKpsXFym60L/k9pVDPfDw1roP43vpA8BFn9u3bjErXphn9OEgeAK1ffA4bV7zduXAkldOX3mUDhuxBvAAvvTw3VUH0mQ9xIMF2ySNlle+2qQbjQCdVEG2z7IC7sFMfXCxkXazEmEj1eZYVIAKUAFHgbgArWMgJT2VxDMipk/nWJUQDjf/qUCuhe0xV9nHpJI3VefTlVynblU0v7y6uF+DtpsxQcdd6jytbi5eye0L++RAEn4Oc59rv455RD5fiZmVGFPAuqujztWLvLv6UJQ7dwnb0CEcum95LI7cs5JpAXOReFjRIW7Jab2tCND8mKEC+VWAaezyu3a0nApQgQYqEBegBX6lMpaGVLcYgQvQYfK7as+qlkPiRr1KDHvlq9WFBtwYbt2Hm4vXL45bw7QUx/D6sqAPcMHr7EK8fGkISoMVFHOuYzKRNswLoN04VzkcNvzae60XXK9DnDh1v21KgG7gG5hDUYGUFSBApywou6MCVKCYCgQBtHvoRcALB31wSWiAKCMHmNzqYC5Ah8nvKgeMJAbajTV0QzHEBgA20odJhgAN0F5hIbqYhT58FwTQYe4DQPvps3TO454ljF2vvlcKMAm5wHwlJMMPoN1MBALxLeNutgAdNU1Y2HcAATqsUryPCmRPAQJ09taEFlEBKpBBBZJ4oL0qj2GKfvApIRxhwM0LdnWJYUnL5ZVX189zW8sDHQaMMb8w90neWIRIILZZX7VKGHtVOUN7XTkuDQ90mHWIs2UJ0HFUYxsqkA0FCNDZWAdaQQWoQMYViAvQrrdUw22tEI4w+V3d/iFjUAy0zp8qeVLRRg7+SfwwvL9+MdBhwDgsQLsx0FofnWvWhXod26xjoDVAuzl9/TzQtWKgywjQp599bsbfkTSPCjRfgYMPPsjssmPHjh3NN4UWUAEqQAWyqUBcgEZohM4yofPPSugHwinkwBpy4UoWDg3QbiiGm99Vp7GDgvqgoV9eXQ3bUiI3bBYOKaecNIQDtvnp4+eB1qWBYTdCNNrt2cF88YSvV3Lj4nU3py/mi5AVXFGycJQNoN9+++1svglpFRXIoAIE6AwuCk2iAlQgOwpEAejsWE1LsqxAVkM4sqwZbaMCWVOAAJ21FaE9VIAKZEoBAnSmlqMQxhCgC7GMnETJFSBAl3wDcPpUgAoEK0CA5g5JWwECdNqKsj8q0HgFCNCN15wjUgEqkCMFCNA5WqycmEqAzslC0UwqEKAAAZrbgwpQASoQoAABmtsjbQUI0Gkryv6oQOMVIEA3XnOOSAWoQI4UIEDnaLFyYioBOicLRTOpAD3Q3ANUgApQgXgKEKDj6cZW/goQoLk7qED+FaAHOv9ryBlQASpQRwUaDdDI46wr6gVNTaoRrnh+rr1NSle7lf2iyCM5qpFL+eCjjzPdDvuSQeGVtC/Y7lfCPM5Y0EyX8ZY+JG92nD51GynzjTzYbSvfNH5VJsOMQ4AOoxLvoQLZVoAAne31oXVUgAo0WYGsArTA82HDv1UBXF2lLy5Eow9c9YBmvZQaoFFUJekFgMaFwjL1vnSZ8Dg6E6DrvULsnwrUXwECdP015ghUgArkWIE4AK29obUq/EEaXZEP1QkBaKfe/KBp33Ef640Wz6r2pnrBslv2Wvfb69jWqj63b91iVrwwz6x/6/WK53rZvJlm5qQL7GrBDlyd9u9perecYubcPsF8uGWzWTJ7hjnnJ7PMkjm/Nvv1Psqg7Db6gG2bVq+0tuqxXC+5rr4oVQPdCoxR7QbEBgG06BLXXil3LqXM6YHO8RuaplOBlBQgQKckJLuhAlSgmApEBWhd4lo/9gdoblm/xgy54lazbuli8/Tksea0Wx8ye+zd2ZaZFk8yQFAAevnCOWbVooW2zea175gnJpxnTp44tVK2+sB+g3w9xa6HGv3K+C9Ov7Myxgcb2yr9olS2tl9KagtAd+ja3Xp4BUix4jKf6aNbLUTLvbBN/wyPNvR45rbx5qQr77Dz9grh6Nzz0J30CGN3GIBOYi/aEqCL+R7nrKhAHAUI0HFUYxsqQAVKo0AUgHY9wCKS+7r8H5DZrW//CpjB4yzQ3TLuZutV1ZDsAu3hw882gF6vS8O79CvwunTO47aJhmHpKwigxRZtv4CxwKV4zeG5dsNAdNiGH0C379RlJz3C2O0VA404bnxJ6djtAOtBF/tdbUTXIHsJ0KV5y3OiVCCUAgToUDLxJipABcqqQBBAy4E7aIOwhaFXTTGzbxlnwVSDrXiD9esCbZ26H1R1aNAFaIQ56EuHQAR5oN3DiBpeAdACuC7cBwG0QLZXqIgfQGuNMA+BWj+Axj36EGVYu8N4oMX+IID2s5cAXdZPAM6bCngrQIDmzqACVIAKBCjQbA+0n5fZ78AgQLLHl79ianlyGwHQnx80xIZjyBeHNDzQfnanAdBB9hKg+TFBBaiAVoAAzf1ABagAFUgJoMV7in/l4JkOP/CKgXbDC/xioD/627aq2GC/LBxvzHrEHhbE5cZW61jiZgA0oP/FX0ytxH7HiYFuJEBrewnQ/JigAlSAAM09QAWoABUIqUAUDzS6lPAGCb2ImoWjdfwtpu3tP5gTLr1upywcCN/QadrcDBc6+wVsCcpm0QiARkwxIFQyewy7eppZt2yxgVd9vz5H2bjk1b9/yUTJwhEE0F55oHXIS5gQDj97tUefWThCvnl4GxUosAL0QBd4cTk1KkAFkisQFaCTj8geiq4A80AXfYU5vzIoQIAuwypzjlSACsRWgAAdWzo29FGAAM2tQQXyrwABOv9ryBlQASpQRwUI0HUUt6RdE6BLuvCcdqEUIEAXajk5GSpABdJWgACdtqLsjwDNPUAF8q8AATr/a8gZUAEqUEcFCNB1FLekXROgS7rwnHahFCBAF2o5ORkqQAXSVoAAnbai7I8AzT1ABfKvAAE6/2vIGVABKlBHBQjQ6YqL1HqSG7tzjy+k23lOeiNA52ShaCYVCFCAAM3tQQWoABUIUCBLAC3lv3u3nGJzKOsqhW4J6lNuesAgD3OSC+Mht/KRp51vdjE7zBGnnFdVojxO31IpUZc6j9NPntsQoPO8erSdCnyqAAGaO4EKUAEqkBOAFjOlWIsANOD56cljbYU/eHXl9wf2GxQbotHH/HtvNEeOON/2ySs9BQjQ6WnJnqhAsxQgQDdLeY5LBahALhSI6oH2q0SI0IUFP77JdD/saDP3jqtM1y8ebk6eONXAI7vi+blGVxl0vclSzdDLAy0V/VxYlvGGTpyyU0VD8U6LrR26dreeZly6cp9UUzznJ7PMkjm/th5vVORDCIb1wOyyizn+4qvNSw/fHWpefpURc7ERUjSSAJ2imOyKCjRJAQJ0k4TnsFSACuRDgagADcjFhZLb2jOM156YcJ4ZMGqs9QrjvmVzn7ReY1wSF6x/hucXpaVXLVpohlxxq3lx+p0Gpax1CIcA7UlX3uHrKUYfb8x6xJx684Pmg41t1g7Au8A3xkT/65YurniyO3Y7oBImIvcJQEt7hGEIFNea1x57dzZP/WC01QXtMP8t69fYcXdt1z4fmyElKwnQKQnJbqhAExUgQDdRfA5NBahA9hWIAtDbNr9XBYk61MIFXUDtptUrLVCi3ezJ48xxF03aCYIB4a/P+mUgQMOzLZ5mL0XFcy0x0QL5A0ZebiFZvNfajiCA1ocA3UOBfvPatmmDhWZAfPuO+1jwrmV39ndHPAsJ0PF0YysqkCUFCNBZWg3aQgWoQOYUCAJoHWrR69hWM/SqKWb2LeNsSIa+EDLRrW//KmAMAmg5vCd99DvjwtgeaK94aBlbAFpiqcMCtAZfF4SDAHr66NYqXRDGInHbmVv4OhpEgK6juOyaCjRIAQJ0g4TmMFSACuRTgageaD9PchTQ1J7aWh5ovxhowPBzd11nTrj0OvPKr+6zoR9+HuhGAbR40ssWsuHufAJ0Pj8LaDUV0AoQoLkfqAAVoAIBCkQBaHSjY6AlPhjxxgjh0J7bMKEOu+3e3oZY4PKLgUY8sV8WDhwORIhIrRjoRgC0GwOtbUJIR5kuAnSZVptzLaoCBOiiriznRQWoQCoKRAVoNwuHZLwI64GW2GNkwECIA7JcLHl6ho1xFk9ymDzQOquHgL1k2nCzcDQCoHEgUmfhKGv4BtaCAJ3KW5OdUIGmKkCAbqr8HJwKUIGsKxAVoLM+H9rXfAUI0M1fA1pABZIqQIBOqiDbUwEqUGgFCNCFXt6mTI4A3RTZOSgVSFUBAnSqcrIzKkAFiqYAAbpoK9r8+RCgm78GtIAKJFWAAJ1UQbanAlSg0AoQoAu9vE2ZHAG6KbJzUCqQqgIE6FTlZGdUgAoUTQECdNFWtPnzIUA3fw1oARVIqgABOqmCbE8FqEChFSBAF3p5mzI5AnRTZOegVCBVBQjQqcrJzqgAFSiaAgTooq1o8+dDgG7+GtACKpBUAQJ0UgXZngpQgUIrAIDe58SzCj1HTq6xCvzx6X81d90wybS0tDR2YI5GBahAagoQoFOTkh1RASpQRAXOHTW6iNPinJqswOiR5xKgm7wGHJ4KJFHg/wP4UNpP492VrAAAAABJRU5ErkJggg==;" vertex="1" parent="1">
          <mxGeometry x="54" y="70" width="720" height="435" as="geometry" />
        </mxCell>
        <mxCell id="aWVlBLdshiJsLIwugZeu-2" value="" style="rounded=0;whiteSpace=wrap;html=1;strokeColor=#FFFFFF;" vertex="1" parent="1">
          <mxGeometry x="195" y="90" width="147" height="152" as="geometry" />
        </mxCell>
        <mxCell id="aWVlBLdshiJsLIwugZeu-3" value="" style="rounded=0;whiteSpace=wrap;html=1;strokeColor=#FFFFFF;" vertex="1" parent="1">
          <mxGeometry x="249" y="251" width="480" height="115" as="geometry" />
        </mxCell>
        <mxCell id="aWVlBLdshiJsLIwugZeu-4" value="" style="rounded=0;whiteSpace=wrap;html=1;strokeColor=#FFFFFF;" vertex="1" parent="1">
          <mxGeometry x="249" y="360" width="121" height="26" as="geometry" />
        </mxCell>
        <mxCell id="aWVlBLdshiJsLIwugZeu-5" value="" style="rounded=0;whiteSpace=wrap;html=1;strokeColor=#FFFFFF;" vertex="1" parent="1">
          <mxGeometry x="608" y="346" width="121" height="26" as="geometry" />
        </mxCell>
        <mxCell id="aWVlBLdshiJsLIwugZeu-6" value="" style="endArrow=block;html=1;rounded=0;endFill=0;entryX=1.011;entryY=0.858;entryDx=0;entryDy=0;entryPerimeter=0;" edge="1" parent="1" target="aWVlBLdshiJsLIwugZeu-2">
          <mxGeometry width="50" height="50" relative="1" as="geometry">
            <mxPoint x="193" y="105" as="sourcePoint" />
            <mxPoint x="358" y="157" as="targetPoint" />
          </mxGeometry>
        </mxCell>
        <mxCell id="aWVlBLdshiJsLIwugZeu-7" value="" style="endArrow=block;html=1;rounded=0;endFill=0;entryX=0.25;entryY=0;entryDx=0;entryDy=0;" edge="1" parent="1" target="aWVlBLdshiJsLIwugZeu-3">
          <mxGeometry width="50" height="50" relative="1" as="geometry">
            <mxPoint x="249" y="300" as="sourcePoint" />
            <mxPoint x="400" y="415" as="targetPoint" />
          </mxGeometry>
        </mxCell>
        <mxCell id="aWVlBLdshiJsLIwugZeu-8" value="" style="endArrow=block;html=1;rounded=0;endFill=0;entryX=0.334;entryY=0.012;entryDx=0;entryDy=0;entryPerimeter=0;" edge="1" parent="1" target="aWVlBLdshiJsLIwugZeu-3">
          <mxGeometry width="50" height="50" relative="1" as="geometry">
            <mxPoint x="303" y="387" as="sourcePoint" />
            <mxPoint x="423" y="338" as="targetPoint" />
          </mxGeometry>
        </mxCell>
        <mxCell id="aWVlBLdshiJsLIwugZeu-9" value="" style="endArrow=block;html=1;rounded=0;endFill=0;entryX=0.334;entryY=0.012;entryDx=0;entryDy=0;entryPerimeter=0;exitX=0.424;exitY=1;exitDx=0;exitDy=0;exitPerimeter=0;" edge="1" parent="1" source="aWVlBLdshiJsLIwugZeu-3">
          <mxGeometry width="50" height="50" relative="1" as="geometry">
            <mxPoint x="342" y="386" as="sourcePoint" />
            <mxPoint x="448" y="251" as="targetPoint" />
          </mxGeometry>
        </mxCell>
        <mxCell id="aWVlBLdshiJsLIwugZeu-10" value="" style="endArrow=block;html=1;rounded=0;endFill=0;entryX=0.334;entryY=0.012;entryDx=0;entryDy=0;entryPerimeter=0;exitX=0.5;exitY=1;exitDx=0;exitDy=0;" edge="1" parent="1" source="aWVlBLdshiJsLIwugZeu-5">
          <mxGeometry width="50" height="50" relative="1" as="geometry">
            <mxPoint x="505" y="366" as="sourcePoint" />
            <mxPoint x="500" y="251" as="targetPoint" />
          </mxGeometry>
        </mxCell>
      </root>
    </mxGraphModel>
  </diagram>
</mxfile>
